<svg version="1.1" id="Layer_1" xmlns="http://www.w3.org/2000/svg" xmlns:xlink="http://www.w3.org/1999/xlink" x="0px" y="0px"
	 width="100%" viewBox="0 0 121 122" enable-background="new 0 0 121 122" xml:space="preserve">
<path fill="#000000" opacity="1.000000" stroke="none" 
	d="
M79.000000,1.000000 
	C93.269043,1.000000 107.538086,1.000000 122.000000,1.000000 
	C122.000000,19.020435 122.000000,37.041561 121.654205,55.502586 
	C119.555984,53.610302 117.803558,51.278118 116.031166,48.932396 
	C116.011200,48.918861 115.969193,48.945683 115.923241,48.642288 
	C115.583496,48.055996 115.289696,47.773094 114.877991,47.349407 
	C114.514786,46.935486 114.269485,46.662350 113.989456,45.992760 
	C113.478027,43.730133 113.001328,41.863960 112.374001,39.620007 
	C107.964180,22.202793 96.293030,11.638418 81.193329,3.659579 
	C80.655075,3.233153 80.288727,3.066180 79.761551,2.886616 
	C79.600731,2.874025 79.278534,2.890338 79.197861,2.581237 
	C79.078125,1.848091 79.039062,1.424045 79.000000,1.000000 
z"/>
<path fill="#000000" opacity="1.000000" stroke="none" 
	d="
M1.000000,63.000000 
	C1.000000,42.422375 1.000000,21.844748 1.000000,1.000000 
	C14.019677,1.000000 27.041180,1.000000 40.517574,1.355159 
	C39.341415,2.767889 37.708378,3.822412 36.079700,4.883621 
	C31.692753,7.742048 27.009455,10.242295 22.998003,13.555688 
	C18.083916,17.614643 13.887693,22.242910 12.680890,29.147308 
	C11.818853,34.079220 9.535211,38.762650 7.574902,43.761452 
	C6.883514,47.988159 6.503134,52.010372 6.043026,56.381294 
	C5.256732,58.438301 4.550167,60.146595 3.556591,61.999847 
	C2.513054,62.429874 1.756527,62.714935 1.000000,63.000000 
z"/>
<path fill="#000000" opacity="1.000000" stroke="none" 
	d="
M16.000000,123.000000 
	C11.033900,123.000000 6.067801,123.000000 1.000000,123.000000 
	C1.000000,106.645897 1.000000,90.291603 1.334345,73.400024 
	C2.108486,72.978912 2.548283,73.095108 2.964839,73.457520 
	C2.911956,74.033966 2.889251,74.364685 2.679094,74.899277 
	C2.989545,75.735573 3.494385,76.368492 4.154521,77.317444 
	C7.224394,84.675858 11.860558,90.370438 17.937019,95.378052 
	C18.381380,97.853455 18.776060,99.927116 19.096207,102.405472 
	C17.001963,107.870415 14.982248,112.930672 12.674860,118.144180 
	C13.551812,119.075439 14.850039,119.720528 15.818379,120.693817 
	C16.232853,121.110413 15.960355,122.210487 16.000000,123.000000 
z"/>
<path fill="#354C26" opacity="1.000000" stroke="none" 
	d="
M66.000000,1.000001 
	C66.444443,1.000000 66.888885,1.000000 67.761887,1.344702 
	C70.788666,2.790881 73.386887,3.892356 76.233383,5.184774 
	C77.324539,5.918982 78.167419,6.462247 79.181595,7.297579 
	C80.561371,8.056144 81.769852,8.522641 83.194168,9.243906 
	C86.648956,12.656518 89.887917,15.814364 93.101807,19.129444 
	C93.076736,19.286676 93.055595,19.604408 92.764435,19.698181 
	C92.028946,20.199877 91.584602,20.607800 90.743500,21.012573 
	C88.894203,21.341749 87.441689,21.674072 85.613831,22.001984 
	C84.988266,21.994143 84.738052,21.990717 84.348831,21.820620 
	C83.803352,21.477518 83.396873,21.301086 82.920891,20.770628 
	C80.607246,19.239182 78.363113,18.061764 76.022232,16.591221 
	C75.284157,15.866581 74.642845,15.435067 73.853210,14.671886 
	C72.692719,8.958434 69.097672,6.598309 63.595016,6.023533 
	C61.811821,6.350547 60.409641,6.678145 58.652878,7.052857 
	C54.823406,9.193130 51.577953,12.003577 47.818211,13.206168 
	C42.581169,14.881288 41.484676,18.163565 41.650948,22.935297 
	C39.899223,22.014601 38.486740,21.011984 36.687080,20.010317 
	C35.105686,20.685867 33.881554,21.313063 32.723095,22.044308 
	C29.721535,23.938969 26.907181,26.662279 22.774574,23.782749 
	C22.543264,22.960911 22.533558,22.356907 22.523853,21.752901 
	C26.866308,22.381027 26.853004,19.207861 27.526735,16.335329 
	C27.788088,15.221026 28.958382,14.078914 30.011585,13.435833 
	C33.373749,11.382911 36.736946,9.222885 40.357651,7.729518 
	C44.960598,5.831027 49.834099,4.596796 54.549854,2.957903 
	C55.778339,2.530961 56.854095,1.664560 58.000000,1.000000 
	C59.714184,1.000000 61.428371,1.000000 63.624123,1.275907 
	C64.418633,1.842740 64.731575,2.133666 65.044518,2.424593 
	C65.363014,1.949730 65.681511,1.474866 66.000000,1.000001 
z"/>
<path fill="#354427" opacity="1.000000" stroke="none" 
	d="
M57.532394,1.000000 
	C56.854095,1.664560 55.778339,2.530961 54.549854,2.957903 
	C49.834099,4.596796 44.960598,5.831027 40.357651,7.729518 
	C36.736946,9.222885 33.373749,11.382911 30.011585,13.435833 
	C28.958382,14.078914 27.788088,15.221026 27.526735,16.335329 
	C26.853004,19.207861 26.866308,22.381027 22.523853,21.752901 
	C22.533558,22.356907 22.543264,22.960911 22.764050,24.122450 
	C22.321943,25.802807 21.668760,26.925632 20.990211,28.430355 
	C20.968102,31.205877 20.971359,33.599503 20.593864,35.990921 
	C19.038849,36.168808 17.864584,36.348904 16.277567,36.592304 
	C19.701015,39.697731 22.642235,41.902428 27.029402,40.300541 
	C29.911501,39.248203 32.994823,38.746964 35.991539,38.376286 
	C35.999069,39.508339 36.003094,40.263035 35.773239,41.259815 
	C33.365814,42.671242 31.192276,43.840584 28.625057,45.011089 
	C25.487743,46.008991 22.744106,47.005730 19.700747,48.057800 
	C18.943350,48.704231 18.485678,49.295326 17.776821,49.926132 
	C17.357340,49.986271 17.189039,50.006702 16.830750,49.832039 
	C16.105028,50.112255 15.569298,50.587559 15.013310,51.039318 
	C14.993054,51.015774 15.052027,51.035042 14.684792,51.036064 
	C13.219988,52.061127 12.122420,53.085171 10.924776,54.302567 
	C10.647327,54.734386 10.421388,54.910561 9.800833,54.825203 
	C8.931827,50.936295 8.408868,47.246628 7.885909,43.556957 
	C9.535211,38.762650 11.818853,34.079220 12.680890,29.147308 
	C13.887693,22.242910 18.083916,17.614643 22.998003,13.555688 
	C27.009455,10.242295 31.692753,7.742048 36.079700,4.883621 
	C37.708378,3.822412 39.341415,2.767889 40.986233,1.355159 
	C46.354931,1.000000 51.709858,1.000000 57.532394,1.000000 
z"/>
<path fill="#020202" opacity="1.000000" stroke="none" 
	d="
M122.000000,107.000000 
	C122.000000,112.296013 122.000000,117.592033 122.000000,123.000000 
	C106.645927,123.000000 91.291626,123.000000 75.446449,122.644714 
	C77.251114,119.587135 79.546646,116.884857 81.918816,114.092361 
	C83.493088,114.778557 84.786720,115.583221 86.191719,115.911972 
	C91.473564,117.147858 96.511536,120.964897 102.493843,117.565186 
	C102.997742,117.471924 103.285278,117.412888 103.891396,117.483261 
	C104.822510,117.113663 105.435158,116.615219 106.239487,115.979095 
	C106.720123,115.696060 106.950050,115.486053 107.516693,115.246407 
	C109.522751,114.218414 111.133041,113.155418 112.998947,112.013885 
	C114.241356,111.077446 115.228149,110.219543 116.532623,109.318726 
	C117.592552,108.546394 118.334808,107.816978 119.442780,107.089081 
	C120.538994,107.060387 121.269493,107.030197 122.000000,107.000000 
z"/>
<path fill="#000000" opacity="1.000000" stroke="none" 
	d="
M122.000000,66.000000 
	C122.000000,79.020897 122.000000,92.041786 121.604660,105.552216 
	C120.160263,106.083954 119.111206,106.126152 117.822983,106.093452 
	C117.417358,106.004295 117.250885,105.990044 116.921570,105.641251 
	C113.843628,100.934166 110.716354,96.680244 108.159744,92.107285 
	C107.504913,90.935974 108.653160,88.756630 109.151688,86.761642 
	C109.897697,85.332779 110.465027,84.182671 111.335297,82.874870 
	C115.550301,78.126251 120.008751,73.791931 119.046631,66.722046 
	C119.034698,66.526642 119.007607,66.136047 119.382286,66.113411 
	C120.504646,66.060516 121.252319,66.030258 122.000000,66.000000 
z"/>
<path fill="#AAB0AB" opacity="1.000000" stroke="none" 
	d="
M16.468655,123.000000 
	C15.960355,122.210487 16.232853,121.110413 15.818379,120.693817 
	C14.850039,119.720528 13.551812,119.075439 13.129785,118.145218 
	C16.603987,118.028992 19.335590,118.064980 22.501869,118.095215 
	C25.272654,118.078484 27.608761,118.067505 30.155725,118.365433 
	C32.951000,118.858719 35.535416,119.043091 38.507950,119.212601 
	C41.244694,118.458900 43.593327,117.720055 46.046730,117.333252 
	C45.996826,118.394554 45.842148,119.103821 45.330307,119.955254 
	C44.315434,121.064949 43.657715,122.032471 43.000000,123.000000 
	C34.312439,123.000000 25.624874,123.000000 16.468655,123.000000 
z"/>
<path fill="#3A362E" opacity="1.000000" stroke="none" 
	d="
M102.277359,117.598862 
	C96.511536,120.964897 91.473564,117.147858 86.191719,115.911972 
	C84.786720,115.583221 83.493088,114.778557 81.918816,114.092361 
	C79.546646,116.884857 77.251114,119.587135 74.977791,122.644714 
	C73.611107,123.000000 72.222221,123.000000 70.405182,122.663483 
	C69.986671,121.877861 69.996300,121.428749 70.368500,120.928726 
	C71.823326,119.251053 72.915573,117.624306 74.303375,115.836578 
	C76.743156,112.443787 78.887390,109.211967 81.252335,106.014771 
	C81.473038,106.049393 81.919724,106.059570 81.934906,106.380608 
	C82.314835,107.463928 82.679581,108.226212 83.019951,109.324120 
	C83.976021,110.789482 84.956459,111.919228 85.960922,113.027931 
	C85.984955,113.006889 85.955009,113.062889 86.074173,113.368889 
	C87.129936,114.061043 88.066544,114.447197 89.248863,114.894974 
	C89.659752,114.921471 89.824936,114.886337 90.329216,115.065163 
	C94.440506,115.716583 98.212708,116.154037 102.045944,116.846832 
	C102.163773,117.267738 102.220566,117.433296 102.277359,117.598862 
z"/>
<path fill="#020201" opacity="1.000000" stroke="none" 
	d="
M43.468575,123.000000 
	C43.657715,122.032471 44.315434,121.064949 45.736031,119.948441 
	C52.015446,119.133110 57.531986,118.466759 63.301682,117.948143 
	C64.028030,118.434448 64.501228,118.773018 64.975563,119.500427 
	C64.984467,120.926186 64.992233,121.963089 65.000000,123.000000 
	C57.979053,123.000000 50.958103,123.000000 43.468575,123.000000 
z"/>
<path fill="#2F3C28" opacity="1.000000" stroke="none" 
	d="
M122.000000,65.545898 
	C121.252319,66.030258 120.504646,66.060516 119.373856,65.648300 
	C118.947113,62.167835 118.903473,59.129833 118.852844,55.768410 
	C118.223709,54.634090 117.601555,53.823193 116.916870,52.682961 
	C116.369675,51.619560 115.885017,50.885490 115.507782,49.820206 
	C115.760506,49.307980 115.905815,49.126957 116.051132,48.945934 
	C117.803558,51.278118 119.555984,53.610302 121.654205,55.971245 
	C122.000000,59.030594 122.000000,62.061188 122.000000,65.545898 
z"/>
<path fill="#4B331C" opacity="1.000000" stroke="none" 
	d="
M65.375000,123.000000 
	C64.992233,121.963089 64.984467,120.926186 65.038223,119.180099 
	C65.732758,117.984077 66.365776,117.497238 67.233665,117.225174 
	C69.648300,116.959145 71.828064,116.478348 74.007828,115.997559 
	C72.915573,117.624306 71.823326,119.251053 70.299408,120.637581 
	C69.245155,121.264900 68.622574,122.132454 68.000000,123.000000 
	C67.250000,123.000000 66.500000,123.000000 65.375000,123.000000 
z"/>
<path fill="#38482E" opacity="1.000000" stroke="none" 
	d="
M75.985107,4.993833 
	C73.386887,3.892356 70.788666,2.790881 68.095222,1.344702 
	C71.361290,1.000000 74.722572,1.000000 78.541931,1.000000 
	C79.039062,1.424045 79.078125,1.848091 78.827469,2.626385 
	C77.686867,3.651700 76.835983,4.322767 75.985107,4.993833 
z"/>
<path fill="#4B4D42" opacity="1.000000" stroke="none" 
	d="
M2.988081,73.211304 
	C2.548283,73.095108 2.108486,72.978912 1.334345,72.931366 
	C1.000000,69.969406 1.000000,66.938812 1.000000,63.454109 
	C1.756527,62.714935 2.513054,62.429874 3.600123,62.039337 
	C3.930667,61.933861 4.016882,62.012161 4.055661,62.430962 
	C3.725654,66.303604 3.356868,69.757454 2.988081,73.211304 
z"/>
<path fill="#543929" opacity="1.000000" stroke="none" 
	d="
M68.333328,123.000000 
	C68.622574,122.132454 69.245155,121.264900 69.936829,120.688499 
	C69.996300,121.428749 69.986671,121.877861 69.988525,122.663483 
	C69.555557,123.000000 69.111107,123.000000 68.333328,123.000000 
z"/>
<path fill="#38482E" opacity="1.000000" stroke="none" 
	d="
M65.666672,1.000001 
	C65.681511,1.474866 65.363014,1.949730 65.044518,2.424593 
	C64.731575,2.133666 64.418633,1.842740 64.052841,1.275907 
	C64.444443,1.000000 64.888893,1.000000 65.666672,1.000001 
z"/>
<path fill="#D5DCD5" opacity="1.000000" stroke="none" 
	d="
M118.062141,106.168358 
	C119.111206,106.126152 120.160263,106.083954 121.604660,106.020874 
	C122.000000,106.000000 122.000000,106.500000 122.000000,106.750000 
	C121.269493,107.030197 120.538994,107.060387 119.247253,106.958450 
	C118.686028,106.826324 118.226677,106.725616 118.193146,106.584061 
	C118.159607,106.442505 118.062141,106.168358 118.062141,106.168358 
z"/>
<path fill="#2F3C28" opacity="1.000000" stroke="none" 
	d="
M76.233383,5.184774 
	C76.835983,4.322767 77.686867,3.651700 78.908142,2.935486 
	C79.278534,2.890338 79.600731,2.874025 79.934433,3.140125 
	C80.633835,3.577161 80.999535,3.748097 81.365227,3.919034 
	C96.293030,11.638418 107.964180,22.202793 111.984589,39.679356 
	C111.537041,42.125301 111.328278,44.134113 110.751450,46.080387 
	C106.256569,44.274410 102.210449,42.276775 97.958694,40.926765 
	C96.490150,40.460472 94.510040,41.605282 92.416504,41.989735 
	C89.298958,40.358315 86.528526,38.751324 84.021736,36.949497 
	C84.527145,36.170029 84.768913,35.585396 85.408890,35.001369 
	C86.869003,35.001877 87.930916,35.001778 89.093803,35.355274 
	C90.796219,36.142639 92.397652,36.576405 94.233276,37.222588 
	C95.656662,36.237255 96.845856,35.039509 98.282654,33.832737 
	C98.920204,33.565350 99.310158,33.306988 100.070847,33.027023 
	C101.107536,32.642612 102.269699,32.378090 102.363998,31.902052 
	C103.523331,26.048857 99.326019,20.262560 93.126877,18.972210 
	C89.887917,15.814364 86.648956,12.656518 83.135918,8.931768 
	C81.577995,7.911746 80.294151,7.458628 79.010307,7.005511 
	C78.167419,6.462247 77.324539,5.918982 76.233383,5.184774 
z"/>
<path fill="#080C06" opacity="1.000000" stroke="none" 
	d="
M92.763611,42.014160 
	C94.510040,41.605282 96.490150,40.460472 97.958694,40.926765 
	C102.210449,42.276775 106.256569,44.274410 111.109314,46.129559 
	C112.564888,46.290585 113.294540,46.339897 114.024185,46.389214 
	C114.269485,46.662350 114.514786,46.935486 114.870605,47.693630 
	C115.310486,48.434319 115.639839,48.689999 115.969193,48.945683 
	C115.969193,48.945683 116.011200,48.918861 116.031166,48.932396 
	C115.905815,49.126957 115.760506,49.307980 115.275818,50.059052 
	C114.811699,53.483910 114.677872,56.338356 114.564835,59.193626 
	C114.456642,61.926430 114.494835,64.671890 114.237808,67.389954 
	C113.995506,69.952225 113.452293,72.486038 112.963394,75.348717 
	C112.263206,76.782501 111.641098,77.899948 110.652832,79.010757 
	C109.318474,78.988266 108.350281,78.972412 107.218384,78.571571 
	C107.064545,76.803925 107.074394,75.421272 107.411697,74.006439 
	C108.449440,72.664268 109.159729,71.354263 110.149261,69.771271 
	C110.320488,64.611221 111.759865,59.244072 106.233192,55.647999 
	C105.490799,53.477596 104.765923,51.691963 104.033188,49.527534 
	C103.207840,48.167969 102.390343,47.187199 101.248596,46.243931 
	C100.288757,46.148388 99.653175,46.015347 99.008591,45.575195 
	C98.321068,44.879421 97.642563,44.490761 96.624237,44.057102 
	C95.110817,43.346127 93.937210,42.680141 92.763611,42.014160 
z"/>
<path fill="#252721" opacity="1.000000" stroke="none" 
	d="
M113.989456,45.992756 
	C113.294540,46.339897 112.564888,46.290585 111.477371,46.192097 
	C111.328278,44.134113 111.537041,42.125301 112.135223,40.057140 
	C113.001328,41.863960 113.478027,43.730133 113.989456,45.992756 
z"/>
<path fill="#2F3C28" opacity="1.000000" stroke="none" 
	d="
M115.923241,48.642288 
	C115.639839,48.689999 115.310486,48.434319 114.988510,47.834415 
	C115.289696,47.773094 115.583496,48.055996 115.923241,48.642288 
z"/>
<path fill="#38482E" opacity="1.000000" stroke="none" 
	d="
M81.193329,3.659580 
	C80.999535,3.748097 80.633835,3.577161 80.095261,3.152716 
	C80.288727,3.066180 80.655075,3.233153 81.193329,3.659580 
z"/>
<path fill="#3B4735" opacity="1.000000" stroke="none" 
	d="
M7.574901,43.761452 
	C8.408868,47.246628 8.931827,50.936295 9.736073,55.089119 
	C9.345162,56.153790 8.672964,56.755314 7.855756,57.087887 
	C7.181416,56.556820 6.652085,56.294704 6.122755,56.032585 
	C6.503134,52.010372 6.883514,47.988159 7.574901,43.761452 
z"/>
<path fill="#4B4D42" opacity="1.000000" stroke="none" 
	d="
M6.043026,56.381294 
	C6.652085,56.294704 7.181416,56.556820 7.641043,57.306488 
	C7.323262,58.807659 7.075184,59.821285 6.526815,60.900757 
	C5.489976,61.315125 4.753429,61.663643 4.016882,62.012161 
	C4.016882,62.012161 3.930667,61.933861 3.887134,61.894375 
	C4.550167,60.146595 5.256732,58.438301 6.043026,56.381294 
z"/>
<path fill="#D4DAD6" opacity="1.000000" stroke="none" 
	d="
M19.170738,102.000786 
	C18.776060,99.927116 18.381380,97.853455 18.282063,95.228592 
	C18.268311,92.486389 17.959192,90.295380 17.680317,87.652603 
	C17.483913,85.154106 17.257267,83.107368 17.360798,80.919312 
	C18.105684,79.174004 18.520391,77.570015 19.263916,75.897507 
	C30.165525,65.247086 40.960819,63.071243 54.316677,69.011383 
	C54.997723,69.468063 55.437096,69.792305 55.912899,70.327812 
	C55.949326,70.539078 56.038948,70.958382 56.022614,71.342087 
	C56.014542,72.494339 56.022812,73.262894 55.654747,74.039551 
	C48.556923,75.866463 43.055904,78.725555 43.747906,87.130005 
	C43.824184,88.056427 43.260960,89.035500 42.630379,89.981575 
	C38.149750,88.471481 36.092312,90.479706 35.155579,94.228447 
	C34.680538,96.129524 34.380562,98.074348 33.684692,99.959465 
	C32.576473,99.277626 31.784996,98.635719 30.995337,97.573792 
	C30.981455,93.950127 32.253925,89.676674 30.672935,87.772987 
	C27.688824,84.179802 28.528229,81.225914 29.651968,77.757118 
	C30.073851,76.454826 30.491081,75.151031 30.910433,73.847916 
	C30.258902,73.609993 29.607372,73.372063 28.955841,73.134132 
	C27.232140,77.672882 25.508436,82.211632 23.784733,86.750381 
	C23.218033,86.531898 22.651333,86.313423 22.084631,86.094940 
	C22.211651,83.636879 22.338671,81.178818 22.465691,78.720757 
	C21.913071,78.670441 21.360453,78.620125 20.807833,78.569809 
	C20.594322,81.308548 19.242523,84.721748 20.388134,86.655167 
	C23.406284,91.748863 21.681541,96.894440 21.630039,102.002235 
	C20.576054,102.001137 19.873396,102.000961 19.170738,102.000786 
M38.233089,74.733139 
	C39.546005,73.701614 40.858921,72.670090 42.171837,71.638557 
	C41.832626,71.029663 41.493416,70.420769 41.154205,69.811882 
	C38.317085,70.649574 35.479961,71.487274 32.642838,72.324966 
	C32.716778,72.749268 32.790718,73.173569 32.864658,73.597862 
	C34.411022,74.007347 35.957390,74.416824 38.233089,74.733139 
z"/>
<path fill="#25251D" opacity="1.000000" stroke="none" 
	d="
M17.650076,88.104362 
	C17.959192,90.295380 18.268311,92.486389 18.232382,94.826859 
	C11.860558,90.370438 7.224394,84.675858 4.132259,76.979599 
	C3.594296,75.782440 3.233889,75.239166 2.873483,74.695885 
	C2.889251,74.364685 2.911956,74.033966 2.964840,73.457512 
	C3.356868,69.757454 3.725654,66.303604 4.055661,62.430962 
	C4.753429,61.663643 5.489976,61.315125 6.584342,61.330727 
	C7.604784,67.186699 8.790058,72.678261 8.793211,78.170486 
	C8.796870,84.545128 12.680849,86.603554 17.650076,88.104362 
z"/>
<path fill="#D6DEDE" opacity="1.000000" stroke="none" 
	d="
M19.096207,102.405472 
	C19.873396,102.000961 20.576054,102.001137 21.633968,102.392349 
	C19.475775,107.902176 22.389662,112.993332 22.067194,118.100960 
	C19.335590,118.064980 16.603987,118.028992 13.417458,117.991966 
	C14.982248,112.930672 17.001963,107.870415 19.096207,102.405472 
z"/>
<path fill="#4B4D42" opacity="1.000000" stroke="none" 
	d="
M2.679094,74.899277 
	C3.233889,75.239166 3.594296,75.782440 3.976964,76.663559 
	C3.494385,76.368492 2.989545,75.735573 2.679094,74.899277 
z"/>
<path fill="#374822" opacity="1.000000" stroke="none" 
	d="
M88.992821,35.001678 
	C87.930916,35.001778 86.869003,35.001877 85.034500,34.989002 
	C79.508385,31.717491 74.299049,31.996042 68.585678,33.006821 
	C65.815384,32.004581 63.454540,31.004099 61.077152,29.820091 
	C61.060612,29.636564 61.003159,29.272528 61.385639,29.273827 
	C62.274261,29.220272 62.780399,29.165419 63.608986,29.032244 
	C68.769592,26.391930 68.814819,26.019745 64.808113,21.894012 
	C64.827606,21.887348 64.846642,21.850798 65.233383,21.905476 
	C67.119530,22.284714 68.618927,22.609272 70.353027,23.031410 
	C70.776421,23.404888 70.965111,23.680790 71.220940,24.319725 
	C72.203247,25.785843 72.964645,27.606956 74.065559,27.842730 
	C76.366661,28.335537 78.846863,27.992008 80.413727,27.992008 
	C81.790222,25.963226 83.139023,23.975256 84.487831,21.987289 
	C84.738052,21.990717 84.988266,21.994143 85.770554,22.206913 
	C86.765343,22.593170 87.228081,22.770084 87.869217,23.273142 
	C89.029343,25.337130 89.841431,27.208797 91.063126,28.757318 
	C91.690056,29.551979 93.048416,29.769583 94.302216,30.339277 
	C94.528191,30.430590 95.009140,30.351282 95.264954,30.501034 
	C95.685188,30.760406 95.849609,30.870031 96.116272,31.258041 
	C96.824028,32.304867 97.429543,33.073311 98.035049,33.841759 
	C96.845856,35.039509 95.656662,36.237255 94.135483,36.866951 
	C92.199944,35.866493 90.596382,35.434086 88.992821,35.001678 
z"/>
<path fill="#3A4820" opacity="1.000000" stroke="none" 
	d="
M21.015577,28.048458 
	C21.668760,26.925632 22.321943,25.802807 22.985653,24.340282 
	C26.907181,26.662279 29.721535,23.938969 32.723095,22.044308 
	C33.881554,21.313063 35.105686,20.685867 36.636055,20.379974 
	C35.042789,22.874653 33.113373,25.000624 31.330521,26.965094 
	C32.108898,28.691786 33.165283,31.035189 33.985771,32.855289 
	C36.945015,32.260773 40.031338,31.640726 43.438171,31.024136 
	C44.510048,31.346498 45.261414,31.665405 45.925484,32.338379 
	C44.296413,33.469906 42.736076,34.213020 41.217739,35.033825 
	C39.455269,35.986607 37.729649,37.007565 35.988037,37.998928 
	C32.994823,38.746964 29.911501,39.248203 27.029402,40.300541 
	C22.642235,41.902428 19.701015,39.697731 16.277567,36.592304 
	C17.864584,36.348904 19.038849,36.168808 21.008972,35.997345 
	C22.600296,34.646873 23.395763,33.287773 24.501007,31.854803 
	C25.743803,30.523138 26.676823,29.265343 28.113604,27.328432 
	C25.390129,27.755367 23.832380,27.999561 22.063225,28.216732 
	C21.582569,28.086401 21.303822,28.039318 21.015577,28.048458 
z"/>
<path fill="#456134" opacity="1.000000" stroke="none" 
	d="
M59.007462,7.005744 
	C60.409641,6.678145 61.811821,6.350547 63.618759,6.395700 
	C65.369957,11.151147 66.716400,15.533843 67.803665,20.037659 
	C66.630402,20.125746 65.716309,20.092710 64.598602,20.053837 
	C64.394981,20.047998 64.001472,19.942564 63.944710,19.605858 
	C61.247353,17.308779 59.943645,11.736154 54.642883,15.996464 
	C51.532585,17.686844 48.785534,19.362770 46.037708,20.671680 
	C48.117485,17.894474 50.092781,15.381892 52.308994,13.103677 
	C54.410545,10.943332 56.764503,9.028526 59.007462,7.005744 
z"/>
<path fill="#A7AA6D" opacity="1.000000" stroke="none" 
	d="
M43.117664,31.020679 
	C40.031338,31.640726 36.945015,32.260773 33.985771,32.855289 
	C33.165283,31.035189 32.108898,28.691786 31.330521,26.965094 
	C33.113373,25.000624 35.042789,22.874653 37.023232,20.379025 
	C38.486740,21.011984 39.899223,22.014601 42.030228,22.990108 
	C43.703571,23.229002 44.658398,23.495005 45.290867,24.019583 
	C42.276089,25.955940 40.806595,27.969421 43.117664,31.020679 
z"/>
<path fill="#3B542C" opacity="1.000000" stroke="none" 
	d="
M68.062843,19.916538 
	C66.716400,15.533843 65.369957,11.151147 63.999771,6.396284 
	C69.097672,6.598309 72.692719,8.958434 73.853554,15.053957 
	C74.011101,16.531982 74.019989,17.296272 74.006653,18.308384 
	C73.984413,18.556208 73.854538,19.036598 73.688705,19.139523 
	C73.315849,19.407852 73.154251,19.609636 72.669952,19.910999 
	C71.555077,19.993387 70.808334,20.012577 69.728378,20.006826 
	C68.951065,19.960104 68.506950,19.938320 68.062843,19.916538 
z"/>
<path fill="#3B552A" opacity="1.000000" stroke="none" 
	d="
M45.613220,23.761009 
	C44.658398,23.495005 43.703571,23.229002 42.369469,22.908186 
	C41.484676,18.163565 42.581169,14.881288 47.818211,13.206168 
	C51.577953,12.003577 54.823406,9.193130 58.652878,7.052857 
	C56.764503,9.028526 54.410545,10.943332 52.308994,13.103677 
	C50.092781,15.381892 48.117485,17.894474 46.014240,21.044607 
	C45.992001,22.287291 45.992462,22.790033 45.922756,23.369877 
	C45.852589,23.446978 45.613220,23.761009 45.613220,23.761009 
z"/>
<path fill="#36461C" opacity="1.000000" stroke="none" 
	d="
M93.101807,19.129444 
	C99.326019,20.262560 103.523331,26.048857 102.363998,31.902052 
	C102.269699,32.378090 101.107536,32.642612 99.878876,32.765652 
	C99.159737,30.887657 99.148544,29.215757 98.780136,27.626678 
	C98.617691,26.925989 97.729744,26.393501 96.888428,25.602448 
	C95.422310,23.481634 94.238953,21.543020 93.055595,19.604408 
	C93.055595,19.604408 93.076736,19.286676 93.101807,19.129444 
z"/>
<path fill="#A8A665" opacity="1.000000" stroke="none" 
	d="
M92.764435,19.698181 
	C94.238953,21.543020 95.422310,23.481634 96.827744,26.002502 
	C96.704552,28.049725 96.359291,29.514690 96.014038,30.979658 
	C95.849609,30.870031 95.685188,30.760406 95.163666,30.427773 
	C94.556595,30.098301 94.313164,30.112703 94.076241,30.247965 
	C93.048416,29.769583 91.690056,29.551979 91.063126,28.757318 
	C89.841431,27.208797 89.029343,25.337130 88.257607,23.260868 
	C89.358482,22.286875 90.249374,21.651300 91.140266,21.015722 
	C91.584602,20.607800 92.028946,20.199877 92.764435,19.698181 
z"/>
<path fill="#9B9960" opacity="1.000000" stroke="none" 
	d="
M84.348831,21.820618 
	C83.139023,23.975256 81.790222,25.963226 80.413727,27.992008 
	C78.846863,27.992008 76.366661,28.335537 74.065559,27.842730 
	C72.964645,27.606956 72.203247,25.785843 71.538834,24.343380 
	C75.284821,25.940039 77.278229,24.775631 78.419388,20.970619 
	C80.220100,21.006454 81.605255,21.065556 82.990402,21.124657 
	C83.396873,21.301086 83.803352,21.477518 84.348831,21.820618 
z"/>
<path fill="#415028" opacity="1.000000" stroke="none" 
	d="
M82.920891,20.770628 
	C81.605255,21.065556 80.220100,21.006454 78.163864,20.771799 
	C76.983482,19.413733 76.474174,18.231220 76.002884,17.007135 
	C76.040894,16.965563 76.118980,16.884344 76.118980,16.884346 
	C78.363113,18.061764 80.607246,19.239182 82.920891,20.770628 
z"/>
<path fill="#415028" opacity="1.000000" stroke="none" 
	d="
M90.743500,21.012575 
	C90.249374,21.651300 89.358482,22.286875 88.079201,22.934725 
	C87.228081,22.770084 86.765343,22.593170 86.145889,22.211325 
	C87.441689,21.674072 88.894203,21.341749 90.743500,21.012575 
z"/>
<path fill="#38482E" opacity="1.000000" stroke="none" 
	d="
M79.181595,7.297579 
	C80.294151,7.458628 81.577995,7.911746 82.920090,8.677001 
	C81.769852,8.522641 80.561371,8.056144 79.181595,7.297579 
z"/>
<path fill="#415028" opacity="1.000000" stroke="none" 
	d="
M74.028885,18.060562 
	C74.019989,17.296272 74.011101,16.531982 74.001869,15.385624 
	C74.642845,15.435067 75.284157,15.866581 76.022232,16.591221 
	C76.118980,16.884344 76.040894,16.965563 75.723061,17.030596 
	C74.946449,17.417274 74.487671,17.738918 74.028885,18.060562 
z"/>
<path fill="#0C0F08" opacity="1.000000" stroke="none" 
	d="
M17.680317,87.652603 
	C12.680849,86.603554 8.796870,84.545128 8.793211,78.170486 
	C8.790058,72.678261 7.604784,67.186699 6.884633,61.264877 
	C7.075184,59.821285 7.323262,58.807659 7.786053,57.575432 
	C8.672964,56.755314 9.345162,56.153790 10.082121,55.288353 
	C10.421388,54.910561 10.647327,54.734386 11.245527,54.230095 
	C12.794911,52.987862 13.923470,52.011452 15.052027,51.035042 
	C15.052027,51.035042 14.993054,51.015774 15.303928,50.999275 
	C16.083447,50.664230 16.552092,50.345680 17.020737,50.027130 
	C17.189039,50.006702 17.357340,49.986271 18.096210,49.953056 
	C19.092129,49.902866 19.517473,49.865467 20.126709,50.061539 
	C19.897892,51.897659 19.485184,53.500309 18.789989,55.312954 
	C17.466293,56.860332 16.022272,58.054459 15.483123,59.570400 
	C14.766313,61.585876 14.754706,63.852161 14.272179,66.307671 
	C11.733371,71.800758 10.798929,76.802086 16.293358,81.017578 
	C16.535305,81.070694 17.030619,81.060638 17.030619,81.060638 
	C17.257267,83.107368 17.483913,85.154106 17.680317,87.652603 
z"/>
<path fill="#3E4C2E" opacity="1.000000" stroke="none" 
	d="
M35.991539,38.376286 
	C37.729649,37.007565 39.455269,35.986607 41.217739,35.033825 
	C42.736076,34.213020 44.296413,33.469906 46.218060,32.304581 
	C47.067581,31.593172 47.537231,31.269629 48.463764,30.961536 
	C52.978333,30.652531 57.036011,30.328074 61.093693,30.003616 
	C63.454540,31.004099 65.815384,32.004581 68.587585,33.410088 
	C69.029938,34.628967 69.060936,35.442829 68.882057,36.421368 
	C68.167336,36.738335 67.662491,36.890621 66.861755,37.031754 
	C66.369408,37.019215 66.172966,37.017841 65.667435,36.840508 
	C63.882580,36.283894 62.329681,35.406441 60.946404,35.621250 
	C57.592247,36.142132 54.317055,37.171452 50.678864,37.848923 
	C48.070210,36.784737 46.060902,36.393635 45.603481,39.917015 
	C42.115303,40.296032 39.061214,40.656879 36.007122,41.017731 
	C36.003094,40.263035 35.999069,39.508339 35.991539,38.376286 
z"/>
<path fill="#656D63" opacity="1.000000" stroke="none" 
	d="
M35.773239,41.259815 
	C39.061214,40.656879 42.115303,40.296032 45.850628,40.078957 
	C47.029396,40.810085 47.526932,41.397442 47.632607,41.998558 
	C45.829014,42.677757 44.417278,43.343197 42.578125,44.007786 
	C40.441956,44.022755 38.733204,44.038574 36.710030,44.102055 
	C35.953957,44.789013 35.512306,45.428314 34.780495,46.108585 
	C34.017056,46.460667 33.543781,46.771774 32.717869,47.062984 
	C31.247240,47.698242 30.129246,48.353397 28.641420,49.012749 
	C27.533197,49.021061 26.794806,49.025181 26.165239,48.733768 
	C27.188955,47.295467 28.103848,46.152699 29.018740,45.009926 
	C31.192276,43.840584 33.365814,42.671242 35.773239,41.259815 
z"/>
<path fill="#303629" opacity="1.000000" stroke="none" 
	d="
M28.625061,45.011093 
	C28.103848,46.152699 27.188955,47.295467 25.879459,48.875301 
	C25.029924,49.996368 24.574993,50.680370 23.828438,51.448975 
	C22.460514,52.734993 21.384214,53.936417 19.999008,55.130806 
	C19.484228,55.116840 19.278353,55.109901 19.072475,55.102959 
	C19.485184,53.500309 19.897892,51.897659 20.141396,49.758835 
	C19.981615,48.815926 19.991043,48.409199 20.000471,48.002468 
	C22.744106,47.005730 25.487743,46.008991 28.625061,45.011093 
z"/>
<path fill="#D5D18B" opacity="1.000000" stroke="none" 
	d="
M24.191231,31.928673 
	C23.395763,33.287773 22.600296,34.646873 21.389725,35.999550 
	C20.971359,33.599503 20.968102,31.205877 20.990211,28.430355 
	C21.303822,28.039318 21.582569,28.086401 22.211926,28.504448 
	C22.792753,29.186403 23.013472,29.553617 23.008148,30.076546 
	C23.124197,30.846584 23.466290,31.460909 23.909809,32.053520 
	C24.011236,32.031811 24.191231,31.928675 24.191231,31.928673 
z"/>
<path fill="#3B4735" opacity="1.000000" stroke="none" 
	d="
M14.684792,51.036064 
	C13.923470,52.011452 12.794911,52.987862 11.345603,54.036743 
	C12.122420,53.085171 13.219988,52.061127 14.684792,51.036064 
z"/>
<path fill="#3B4735" opacity="1.000000" stroke="none" 
	d="
M19.700747,48.057800 
	C19.991043,48.409199 19.981615,48.815926 19.957504,49.525360 
	C19.517473,49.865467 19.092129,49.902866 18.347395,49.913345 
	C18.485678,49.295326 18.943350,48.704231 19.700747,48.057800 
z"/>
<path fill="#3B4735" opacity="1.000000" stroke="none" 
	d="
M16.830750,49.832039 
	C16.552092,50.345680 16.083447,50.664230 15.324184,51.022820 
	C15.569298,50.587559 16.105028,50.112255 16.830750,49.832039 
z"/>
<path fill="#979E98" opacity="1.000000" stroke="none" 
	d="
M117.822983,106.093452 
	C118.062141,106.168358 118.159607,106.442505 117.833755,106.692322 
	C117.076912,107.748642 116.645927,108.555145 116.214951,109.361649 
	C115.228149,110.219543 114.241356,111.077446 112.803764,111.808594 
	C110.893875,111.106415 109.434776,110.530968 108.081474,109.606384 
	C111.152992,108.163429 114.118706,107.069618 117.084419,105.975800 
	C117.250885,105.990044 117.417358,106.004295 117.822983,106.093452 
z"/>
<path fill="#767D76" opacity="1.000000" stroke="none" 
	d="
M107.975677,109.955528 
	C109.434776,110.530968 110.893875,111.106415 112.548157,111.887138 
	C111.133041,113.155418 109.522751,114.218414 107.480072,114.819061 
	C107.063911,112.933838 107.080132,111.510948 107.316116,110.057098 
	C107.535881,110.026131 107.975677,109.955528 107.975677,109.955528 
z"/>
<path fill="#979E98" opacity="1.000000" stroke="none" 
	d="
M107.096344,110.088058 
	C107.080132,111.510948 107.063911,112.933838 107.084312,114.784073 
	C106.950050,115.486053 106.720123,115.696060 105.908432,115.874405 
	C104.923309,115.924232 104.460907,115.941071 103.874802,115.752167 
	C103.525864,115.314445 103.269897,115.123711 103.000763,114.600983 
	C104.377670,112.847862 105.737007,111.467957 107.096344,110.088058 
z"/>
<path fill="#767D76" opacity="1.000000" stroke="none" 
	d="
M102.983200,114.974205 
	C103.269897,115.123711 103.525864,115.314445 103.834526,115.994156 
	C103.783737,116.738800 103.668724,117.042969 103.572929,117.354401 
	C103.285278,117.412888 102.997742,117.471924 102.493843,117.565186 
	C102.220566,117.433296 102.163773,117.267738 102.059311,116.595123 
	C102.335495,115.716774 102.659348,115.345490 102.983200,114.974205 
z"/>
<path fill="#767D76" opacity="1.000000" stroke="none" 
	d="
M116.532623,109.318726 
	C116.645927,108.555145 117.076912,107.748642 117.867287,106.833878 
	C118.226677,106.725616 118.686028,106.826324 118.881546,106.956947 
	C118.334808,107.816978 117.592552,108.546394 116.532623,109.318726 
z"/>
<path fill="#3A362E" opacity="1.000000" stroke="none" 
	d="
M103.891396,117.483261 
	C103.668724,117.042969 103.783737,116.738800 103.958237,116.199905 
	C104.460907,115.941071 104.923309,115.924232 105.716751,116.012085 
	C105.435158,116.615219 104.822510,117.113663 103.891396,117.483261 
z"/>
<path fill="#ABB2AF" opacity="1.000000" stroke="none" 
	d="
M103.000763,114.600983 
	C102.659348,115.345490 102.335495,115.716774 101.998276,116.339783 
	C98.212708,116.154037 94.440506,115.716583 90.634499,114.812515 
	C94.183022,113.138977 99.393959,115.861115 101.376556,109.938034 
	C104.687164,102.950661 106.651619,96.023888 101.992012,88.632629 
	C101.645355,86.838005 101.310593,85.411667 101.321037,84.066574 
	C103.555084,85.067406 105.443932,85.986992 107.608727,86.813271 
	C108.247459,86.826775 108.610237,86.933594 108.973015,87.040405 
	C108.653160,88.756630 107.504913,90.935974 108.159744,92.107285 
	C110.716354,96.680244 113.843628,100.934166 116.921570,105.641258 
	C114.118706,107.069618 111.152992,108.163429 108.081474,109.606384 
	C107.975677,109.955528 107.535881,110.026131 107.316116,110.057091 
	C105.737007,111.467957 104.377670,112.847862 103.000763,114.600983 
z"/>
<path fill="#1A1710" opacity="1.000000" stroke="none" 
	d="
M113.041458,75.032372 
	C113.452293,72.486038 113.995506,69.952225 114.237808,67.389954 
	C114.494835,64.671890 114.456642,61.926430 114.564835,59.193626 
	C114.677872,56.338356 114.811699,53.483910 115.168396,50.390259 
	C115.885017,50.885490 116.369675,51.619560 116.933334,53.020287 
	C117.628159,54.488571 118.243996,55.290203 118.859833,56.091835 
	C118.903473,59.129833 118.947113,62.167835 118.999176,65.670944 
	C119.007607,66.136047 119.034698,66.526642 118.744339,66.911377 
	C116.649811,69.874863 114.845627,72.453613 113.041458,75.032372 
z"/>
<path fill="#252721" opacity="1.000000" stroke="none" 
	d="
M112.963387,75.348717 
	C114.845627,72.453613 116.649811,69.874863 118.756279,67.106773 
	C120.008751,73.791931 115.550301,78.126251 111.326126,82.865662 
	C111.014030,83.014145 111.004631,83.004578 110.993042,82.605385 
	C110.993958,81.143257 111.006470,80.080322 111.018982,79.017387 
	C111.641098,77.899948 112.263206,76.782501 112.963387,75.348717 
z"/>
<path fill="#252721" opacity="1.000000" stroke="none" 
	d="
M109.151688,86.761642 
	C108.610237,86.933594 108.247459,86.826775 107.565933,86.417046 
	C107.290947,85.065903 107.334709,84.017677 107.739258,82.968857 
	C109.068237,82.980370 110.036438,82.992470 111.004631,83.004578 
	C111.004631,83.004578 111.014030,83.014145 111.023193,83.023354 
	C110.465027,84.182671 109.897697,85.332779 109.151688,86.761642 
z"/>
<path fill="#C7D1CF" opacity="1.000000" stroke="none" 
	d="
M22.501869,118.095215 
	C22.389662,112.993332 19.475775,107.902176 21.985296,102.393280 
	C21.681541,96.894440 23.406284,91.748863 20.388134,86.655167 
	C19.242523,84.721748 20.594322,81.308548 20.807833,78.569809 
	C21.360453,78.620125 21.913071,78.670441 22.465691,78.720757 
	C22.338671,81.178818 22.211651,83.636879 22.084631,86.094940 
	C22.651333,86.313423 23.218033,86.531898 23.784733,86.750381 
	C25.508436,82.211632 27.232140,77.672882 28.955841,73.134132 
	C29.607372,73.372063 30.258902,73.609993 30.910433,73.847916 
	C30.491081,75.151031 30.073851,76.454826 29.651968,77.757118 
	C28.528229,81.225914 27.688824,84.179802 30.672935,87.772987 
	C32.253925,89.676674 30.981455,93.950127 30.731131,97.804382 
	C27.127775,102.250481 27.002357,105.459946 31.726175,108.420418 
	C33.206879,109.348381 33.947937,111.456558 34.935257,113.350952 
	C33.210258,115.137108 31.577564,116.596817 29.944868,118.056534 
	C27.608761,118.067505 25.272654,118.078484 22.501869,118.095215 
z"/>
<path fill="#D0D7D7" opacity="1.000000" stroke="none" 
	d="
M35.027554,113.024513 
	C33.947937,111.456558 33.206879,109.348381 31.726175,108.420418 
	C27.002357,105.459946 27.127775,102.250481 30.729315,98.224396 
	C31.784996,98.635719 32.576473,99.277626 33.733318,100.279961 
	C35.528244,101.326004 36.957798,102.011627 38.451797,102.728157 
	C38.646587,105.711014 38.877579,109.248192 39.108566,112.785370 
	C39.783173,112.903427 40.457779,113.021484 41.132385,113.139542 
	C41.989956,111.559731 42.710587,109.882324 43.746166,108.429398 
	C44.660774,107.146202 45.926563,106.113327 47.279919,104.991913 
	C47.522541,105.013908 48.007423,105.067749 48.007423,105.067749 
	C48.007423,105.067749 48.494671,105.043175 48.559631,105.370026 
	C48.753494,106.118713 48.882397,106.540550 48.910789,107.203171 
	C48.740910,107.603447 48.671535,107.762962 48.269066,108.080391 
	C47.703060,109.963654 47.470146,111.688988 47.249619,113.743011 
	C46.821991,115.041527 46.381973,116.011368 45.941956,116.981209 
	C43.593327,117.720055 41.244694,118.458900 38.474792,118.776749 
	C37.639080,116.241402 39.152748,113.032669 35.027554,113.024513 
z"/>
<path fill="#4B331C" opacity="1.000000" stroke="none" 
	d="
M46.046730,117.333252 
	C46.381973,116.011368 46.821991,115.041527 47.548588,113.734222 
	C48.205074,113.252724 48.574982,113.108681 49.330166,112.977417 
	C51.138382,112.679108 52.561325,112.368011 54.310081,112.057648 
	C55.067368,112.101273 55.498848,112.144173 56.043644,112.510498 
	C58.454151,114.489418 60.751339,116.144920 63.048523,117.800415 
	C57.531986,118.466759 52.015446,119.133110 46.093185,119.806274 
	C45.842148,119.103821 45.996826,118.394554 46.046730,117.333252 
z"/>
<path fill="#D8E0E0" opacity="1.000000" stroke="none" 
	d="
M34.935257,113.350952 
	C39.152748,113.032669 37.639080,116.241402 38.086681,118.791611 
	C35.535416,119.043091 32.951000,118.858719 30.155725,118.365440 
	C31.577564,116.596817 33.210258,115.137108 34.935257,113.350952 
z"/>
<path fill="#CFD7D5" opacity="1.000000" stroke="none" 
	d="
M101.052711,110.013512 
	C99.393959,115.861115 94.183022,113.138977 90.295410,114.598557 
	C89.824936,114.886337 89.659752,114.921471 89.163246,114.572243 
	C87.872948,113.812889 86.913979,113.437889 85.955009,113.062889 
	C85.955009,113.062889 85.984955,113.006889 85.989594,112.667465 
	C85.010925,111.214867 84.027626,110.101685 83.044327,108.988495 
	C82.679581,108.226212 82.314835,107.463928 82.198181,106.104858 
	C82.620766,103.982895 82.795250,102.457733 83.301605,101.020264 
	C84.689331,102.287949 85.745193,103.467926 86.795601,104.641815 
	C89.946236,101.585724 89.946236,101.585724 93.755440,105.246628 
	C95.214134,104.819695 96.602676,104.413300 97.996796,104.337677 
	C98.007195,105.109489 98.012016,105.550537 97.803467,106.212280 
	C98.707924,107.298294 99.825760,108.163628 100.964088,109.275848 
	C100.984589,109.522736 101.052711,110.013512 101.052711,110.013512 
z"/>
<path fill="#543929" opacity="1.000000" stroke="none" 
	d="
M74.303375,115.836586 
	C71.828064,116.478348 69.648300,116.959145 67.404312,116.927811 
	C68.556976,114.604172 69.773880,112.792648 70.995224,110.721985 
	C70.979553,110.291122 70.959442,110.119400 71.173180,109.907227 
	C71.407021,109.866768 71.871307,109.768211 72.249077,109.828964 
	C75.384247,107.944366 78.141647,105.999023 80.975662,104.370010 
	C81.045395,105.117607 81.038513,105.548882 81.031624,105.980148 
	C78.887390,109.211967 76.743156,112.443787 74.303375,115.836586 
z"/>
<path fill="#C6BEB6" opacity="1.000000" stroke="none" 
	d="
M81.252335,106.014771 
	C81.038513,105.548882 81.045395,105.117607 81.007095,103.967331 
	C80.242172,99.823647 79.522438,96.398972 78.843369,92.565796 
	C78.480202,89.156776 78.076378,86.156258 77.967422,83.053421 
	C79.500427,85.338791 81.250114,87.605118 81.852379,90.143661 
	C82.679970,93.631989 82.638710,97.326431 82.969727,100.932564 
	C82.795250,102.457733 82.620766,103.982895 82.182999,105.783813 
	C81.919724,106.059570 81.473038,106.049393 81.252335,106.014771 
z"/>
<path fill="#C6BEB6" opacity="1.000000" stroke="none" 
	d="
M83.019951,109.324120 
	C84.027626,110.101685 85.010925,111.214867 85.965561,112.688507 
	C84.956459,111.919228 83.976021,110.789482 83.019951,109.324120 
z"/>
<path fill="#C6BEB6" opacity="1.000000" stroke="none" 
	d="
M86.074173,113.368889 
	C86.913979,113.437889 87.872948,113.812889 88.917534,114.510620 
	C88.066544,114.447197 87.129936,114.061043 86.074173,113.368889 
z"/>
<path fill="#5F422B" opacity="1.000000" stroke="none" 
	d="
M70.990776,110.981125 
	C69.773880,112.792648 68.556976,114.604172 67.169434,116.713051 
	C66.365776,117.497238 65.732758,117.984077 65.037086,118.791252 
	C64.501228,118.773018 64.028030,118.434448 63.301682,117.948151 
	C60.751339,116.144920 58.454151,114.489418 56.398663,112.443329 
	C57.116276,111.990730 57.592194,111.928726 58.471863,111.902618 
	C60.228191,111.914185 61.580765,111.889854 63.346222,111.905304 
	C66.169662,111.623764 68.580223,111.302444 70.990776,110.981125 
z"/>
<path fill="#252721" opacity="1.000000" stroke="none" 
	d="
M118.852844,55.768410 
	C118.243996,55.290203 117.628159,54.488571 116.995865,53.349617 
	C117.601555,53.823193 118.223709,54.634090 118.852844,55.768410 
z"/>
<path fill="#626861" opacity="1.000000" stroke="none" 
	d="
M67.157654,37.042912 
	C67.662491,36.890621 68.167336,36.738335 69.315369,36.399200 
	C74.558403,36.523010 79.158241,36.833672 83.758087,37.144329 
	C86.528526,38.751324 89.298958,40.358315 92.416504,41.989735 
	C93.937210,42.680141 95.110817,43.346127 96.748131,44.313683 
	C97.813766,45.037609 98.415680,45.459957 99.017601,45.882301 
	C99.653175,46.015347 100.288757,46.148388 101.370224,46.557114 
	C102.557755,47.857307 103.299393,48.881821 104.041039,49.906334 
	C104.765923,51.691963 105.490799,53.477596 105.889847,55.713966 
	C104.704376,56.426304 103.844719,56.687904 102.987358,56.982639 
	C102.989647,57.015778 103.055840,57.010159 102.861748,56.782959 
	C102.111168,56.362816 101.554688,56.169868 100.835541,55.745480 
	C100.072853,54.815159 99.472809,54.116283 99.146576,53.182793 
	C102.877998,48.441624 97.757576,48.273853 96.066925,47.406010 
	C92.286842,45.465630 88.048798,44.417404 83.605850,42.977093 
	C81.144058,42.636318 79.073708,42.324230 76.627045,41.991882 
	C75.497742,41.991753 74.744743,42.011875 73.639450,42.080559 
	C72.132118,43.792397 70.977081,45.455669 69.485886,47.028835 
	C64.520973,44.438240 67.045197,40.497826 67.157654,37.042912 
z"/>
<path fill="#39462D" opacity="1.000000" stroke="none" 
	d="
M84.021736,36.949497 
	C79.158241,36.833672 74.558403,36.523010 69.525253,36.234520 
	C69.060936,35.442829 69.029938,34.628967 68.997025,33.411842 
	C74.299049,31.996042 79.508385,31.717491 84.636292,34.988396 
	C84.768913,35.585396 84.527145,36.170029 84.021736,36.949497 
z"/>
<path fill="#818450" opacity="1.000000" stroke="none" 
	d="
M96.116272,31.258041 
	C96.359291,29.514690 96.704552,28.049725 97.110497,26.184704 
	C97.729744,26.393501 98.617691,26.925989 98.780136,27.626678 
	C99.148544,29.215757 99.159737,30.887657 99.508141,32.787254 
	C99.310158,33.306988 98.920204,33.565350 98.282654,33.832733 
	C97.429543,33.073311 96.824028,32.304867 96.116272,31.258041 
z"/>
<path fill="#39462D" opacity="1.000000" stroke="none" 
	d="
M89.093803,35.355274 
	C90.596382,35.434086 92.199944,35.866493 93.901291,36.654533 
	C92.397652,36.576405 90.796219,36.142639 89.093803,35.355274 
z"/>
<path fill="#6B4B34" opacity="1.000000" stroke="none" 
	d="
M98.872772,53.417412 
	C99.472809,54.116283 100.072853,54.815159 101.031525,55.974056 
	C101.945381,56.626106 102.500610,56.818130 103.055840,57.010159 
	C103.055840,57.010159 102.989647,57.015778 103.019951,57.332485 
	C105.323509,61.780884 107.596764,65.912575 109.870018,70.044266 
	C109.159729,71.354263 108.449440,72.664268 107.129051,73.848900 
	C106.221321,72.917053 105.923683,72.110573 105.701294,70.925804 
	C105.120888,68.856346 104.522438,67.140335 103.800117,65.478149 
	C99.673523,55.982136 98.072487,55.407639 87.854820,56.662132 
	C82.294464,57.344818 76.456970,59.667328 70.588608,55.994598 
	C68.455956,55.619678 66.698051,55.321140 64.828598,54.755676 
	C64.147606,53.986187 63.578163,53.483624 62.976898,52.616302 
	C60.028912,48.487747 57.084290,49.979179 53.986320,51.965080 
	C53.555882,51.482601 53.274818,51.238865 53.126633,50.705765 
	C53.847530,49.287540 54.435547,48.158688 55.413918,47.010941 
	C57.858101,46.674335 59.911926,46.356628 62.263031,46.199760 
	C65.402008,48.611069 67.239769,52.955219 72.329857,50.940170 
	C72.535873,50.933895 72.948288,50.925568 73.147919,51.147518 
	C73.900963,51.565346 74.454369,51.761219 74.921776,52.224075 
	C75.558899,52.988941 76.282036,53.486824 77.419075,53.989140 
	C79.989098,53.761631 82.983780,54.999424 82.981369,51.001556 
	C82.950516,50.964649 82.938644,50.869183 83.196045,51.011925 
	C84.283089,51.127636 85.112747,51.100601 86.373993,51.042431 
	C90.827980,51.813335 94.850380,52.615372 98.872772,53.417412 
z"/>
<path fill="#B7BBB7" opacity="1.000000" stroke="none" 
	d="
M105.626045,71.304100 
	C105.923683,72.110573 106.221321,72.917053 106.801590,73.881073 
	C107.074394,75.421272 107.064545,76.803925 107.034363,78.948036 
	C107.135506,80.796150 107.256989,81.882797 107.378471,82.969452 
	C107.334709,84.017677 107.290947,85.065903 107.289978,86.510353 
	C105.443932,85.986992 103.555084,85.067406 101.176651,83.741501 
	C101.610382,78.490814 101.659317,73.688919 100.286827,69.135498 
	C101.798676,69.856369 103.013176,70.412224 104.467224,70.997101 
	C105.005951,71.142784 105.312370,71.235443 105.626045,71.304100 
z"/>
<path fill="#1A1710" opacity="1.000000" stroke="none" 
	d="
M110.149261,69.771271 
	C107.596764,65.912575 105.323509,61.780884 103.017662,57.299347 
	C103.844719,56.687904 104.704376,56.426304 105.907364,56.098732 
	C111.759865,59.244072 110.320488,64.611221 110.149261,69.771271 
z"/>
<path fill="#1A1710" opacity="1.000000" stroke="none" 
	d="
M107.739258,82.968857 
	C107.256989,81.882797 107.135506,80.796150 107.198051,79.333031 
	C108.350281,78.972412 109.318474,78.988266 110.652832,79.010757 
	C111.006470,80.080322 110.993958,81.143257 110.993042,82.605385 
	C110.036438,82.992470 109.068237,82.980370 107.739258,82.968857 
z"/>
<path fill="#1A1710" opacity="1.000000" stroke="none" 
	d="
M104.033188,49.527534 
	C103.299393,48.881821 102.557755,47.857307 101.694489,46.519611 
	C102.390343,47.187199 103.207840,48.167969 104.033188,49.527534 
z"/>
<path fill="#1A1710" opacity="1.000000" stroke="none" 
	d="
M99.008591,45.575195 
	C98.415680,45.459957 97.813766,45.037609 97.087952,44.358681 
	C97.642563,44.490761 98.321068,44.879421 99.008591,45.575195 
z"/>
<path fill="#C7CFCD" opacity="1.000000" stroke="none" 
	d="
M47.037296,104.969925 
	C45.926563,106.113327 44.660774,107.146202 43.746166,108.429398 
	C42.710587,109.882324 41.989956,111.559731 41.132385,113.139542 
	C40.457779,113.021484 39.783173,112.903427 39.108566,112.785370 
	C38.877579,109.248192 38.646587,105.711014 38.451797,102.728157 
	C36.957798,102.011627 35.528244,101.326004 34.050064,100.319885 
	C34.380562,98.074348 34.680538,96.129524 35.155579,94.228447 
	C36.092312,90.479706 38.149750,88.471481 42.797825,90.324074 
	C44.565250,95.440079 45.801273,100.205002 47.037296,104.969925 
z"/>
<path fill="#BCBBB2" opacity="1.000000" stroke="none" 
	d="
M47.279919,104.991913 
	C45.801273,100.205002 44.565250,95.440079 43.161781,90.332657 
	C43.260960,89.035500 43.824184,88.056427 43.747906,87.130005 
	C43.055904,78.725555 48.556923,75.866463 55.806946,74.193344 
	C56.335476,74.339012 56.640957,74.647720 56.392235,74.837593 
	C55.053402,75.985443 53.963287,76.943420 52.633667,78.073097 
	C52.256882,78.810547 52.119606,79.376297 51.606667,80.002457 
	C50.161938,81.381531 48.242783,82.663498 48.183990,84.025757 
	C48.011036,88.033234 48.576206,92.072563 48.821297,96.545761 
	C48.691677,99.675797 48.593174,102.359482 48.494671,105.043175 
	C48.494671,105.043175 48.007423,105.067749 48.007423,105.067749 
	C48.007423,105.067749 47.522541,105.013908 47.279919,104.991913 
z"/>
<path fill="#C59C7F" opacity="1.000000" stroke="none" 
	d="
M54.075005,68.878937 
	C40.960819,63.071243 30.165525,65.247086 19.246840,75.508926 
	C20.413918,67.222458 23.734970,64.365700 31.823996,63.869663 
	C33.212330,63.784523 34.569973,63.198864 36.317520,62.882629 
	C37.442337,62.874592 38.191422,62.828342 39.348145,62.875690 
	C42.180904,63.318005 44.606033,63.666718 47.457336,64.013145 
	C49.588993,64.018021 51.294468,64.025192 53.033920,64.345680 
	C53.387905,65.435509 53.707916,66.212013 54.031609,67.304321 
	C54.048531,68.039726 54.061768,68.459328 54.075005,68.878937 
z"/>
<path fill="#8E664C" opacity="1.000000" stroke="none" 
	d="
M35.941792,62.844418 
	C34.569973,63.198864 33.212330,63.784523 31.823996,63.869663 
	C23.734970,64.365700 20.413918,67.222458 18.918022,75.577438 
	C18.520391,77.570015 18.105684,79.174004 17.360798,80.919312 
	C17.030619,81.060638 16.535305,81.070694 16.297525,80.658455 
	C16.319019,78.441765 16.739073,76.642838 16.801191,74.831627 
	C16.903275,71.855164 21.078211,68.967911 17.037823,65.666046 
	C17.036396,65.435669 17.041870,64.974953 17.381014,64.925018 
	C20.086506,63.531086 22.452852,62.187084 25.125895,61.130306 
	C28.935658,61.893162 32.438725,62.368790 35.941792,62.844418 
z"/>
<path fill="#977E6B" opacity="1.000000" stroke="none" 
	d="
M56.038948,70.958382 
	C56.038948,70.958382 55.949326,70.539078 55.972088,70.270668 
	C55.994850,70.002258 56.110619,69.888054 56.504852,69.922882 
	C58.642921,69.608589 60.386757,69.259483 62.341644,68.784225 
	C62.983025,68.420853 63.413361,68.183632 64.155296,67.936142 
	C64.967293,67.606041 65.467690,67.286209 65.977844,66.981476 
	C65.987602,66.996590 65.980560,66.966805 66.196365,66.847427 
	C66.677803,66.522484 66.885040,66.269135 67.280106,65.965881 
	C67.850235,65.975746 68.174248,65.983574 68.519592,66.307114 
	C68.563065,67.053398 68.585312,67.479797 68.555313,68.026108 
	C68.503075,68.146027 68.589401,68.395470 68.267662,68.552719 
	C67.171143,70.159447 66.396355,71.608910 65.300751,73.059921 
	C62.652725,72.708138 60.325504,72.354813 57.742493,71.888962 
	C57.004116,71.503746 56.521534,71.231064 56.038948,70.958382 
z"/>
<path fill="#D8E2E7" opacity="1.000000" stroke="none" 
	d="
M37.868423,74.779724 
	C35.957390,74.416824 34.411022,74.007347 32.864658,73.597862 
	C32.790718,73.173569 32.716778,72.749268 32.642838,72.324966 
	C35.479961,71.487274 38.317085,70.649574 41.154205,69.811882 
	C41.493416,70.420769 41.832626,71.029663 42.171837,71.638557 
	C40.858921,72.670090 39.546005,73.701614 37.868423,74.779724 
z"/>
<path fill="#BCBBB2" opacity="1.000000" stroke="none" 
	d="
M56.022614,71.342087 
	C56.521534,71.231064 57.004116,71.503746 57.729271,72.201317 
	C57.528214,73.300049 57.084587,73.973885 56.640961,74.647720 
	C56.640957,74.647720 56.335476,74.339012 56.183277,74.185226 
	C56.022812,73.262894 56.014542,72.494339 56.022614,71.342087 
z"/>
<path fill="#977E6B" opacity="1.000000" stroke="none" 
	d="
M54.316677,69.011383 
	C54.061768,68.459328 54.048531,68.039726 54.314079,67.340561 
	C55.068050,67.346260 55.543232,67.631516 56.017937,68.246918 
	C56.048515,69.014069 56.079567,69.451057 56.110619,69.888054 
	C56.110619,69.888054 55.994850,70.002258 55.935661,70.059402 
	C55.437096,69.792305 54.997723,69.468063 54.316677,69.011383 
z"/>
<path fill="#5F6E41" opacity="1.000000" stroke="none" 
	d="
M61.077152,29.820091 
	C57.036011,30.328074 52.978333,30.652531 48.334030,30.678955 
	C48.513187,28.228336 49.278965,26.075752 50.344669,24.080952 
	C54.080982,25.619856 57.517368,27.000978 60.960968,28.604992 
	C60.968178,28.827885 61.003159,29.272528 61.003159,29.272528 
	C61.003159,29.272528 61.060612,29.636564 61.077152,29.820091 
z"/>
<path fill="#B5BA72" opacity="1.000000" stroke="none" 
	d="
M74.006653,18.308384 
	C74.487671,17.738918 74.946449,17.417274 75.685043,17.072168 
	C76.474174,18.231220 76.983482,19.413733 77.748306,20.795065 
	C77.278229,24.775631 75.284821,25.940039 71.471695,23.980345 
	C70.965111,23.680790 70.776421,23.404888 70.298668,22.670883 
	C70.026932,21.485773 70.044258,20.758768 70.061592,20.031765 
	C70.808334,20.012577 71.555077,19.993387 72.905067,19.906929 
	C73.835899,19.663462 73.951309,19.395775 73.854538,19.036598 
	C73.854538,19.036598 73.984413,18.556208 74.006653,18.308384 
z"/>
<path fill="#9FA567" opacity="1.000000" stroke="none" 
	d="
M61.385639,29.273827 
	C61.003159,29.272528 60.968178,28.827885 60.949974,28.238792 
	C59.932510,24.486149 58.933254,21.322598 58.282600,18.244080 
	C60.421291,18.866930 62.211384,19.404747 64.001472,19.942564 
	C64.001472,19.942564 64.394981,20.047998 64.628357,20.351578 
	C64.856705,21.053703 64.851677,21.452251 64.846649,21.850798 
	C64.846642,21.850798 64.827606,21.887348 64.492157,22.031452 
	C60.451157,24.058662 62.658924,26.683748 63.286541,29.110563 
	C62.780399,29.165419 62.274261,29.220272 61.385639,29.273827 
z"/>
<path fill="#4F6334" opacity="1.000000" stroke="none" 
	d="
M63.608986,29.032244 
	C62.658924,26.683748 60.451157,24.058662 64.472672,22.038116 
	C68.814819,26.019745 68.769592,26.391930 63.608986,29.032244 
z"/>
<path fill="#4F6334" opacity="1.000000" stroke="none" 
	d="
M65.233383,21.905476 
	C64.851677,21.452251 64.856705,21.053703 64.831970,20.357418 
	C65.716309,20.092710 66.630402,20.125746 67.803665,20.037659 
	C68.506950,19.938320 68.951065,19.960104 69.728378,20.006824 
	C70.044258,20.758768 70.026932,21.485773 70.063965,22.573303 
	C68.618927,22.609272 67.119530,22.284714 65.233383,21.905476 
z"/>
<path fill="#818450" opacity="1.000000" stroke="none" 
	d="
M94.302216,30.339277 
	C94.313164,30.112703 94.556595,30.098301 94.907845,30.278023 
	C95.009140,30.351282 94.528191,30.430590 94.302216,30.339277 
z"/>
<path fill="#4B5A2C" opacity="1.000000" stroke="none" 
	d="
M50.044746,23.923168 
	C49.278965,26.075752 48.513187,28.228336 47.877144,30.663502 
	C47.537231,31.269629 47.067581,31.593172 46.305359,31.950514 
	C45.261414,31.665405 44.510048,31.346498 43.438171,31.024136 
	C40.806595,27.969421 42.276089,25.955940 45.290867,24.019585 
	C45.613220,23.761009 45.852589,23.446978 46.305809,23.270187 
	C47.545361,23.045370 48.331699,22.997343 49.330162,23.049568 
	C49.808113,23.343708 49.975597,23.601492 50.044746,23.923168 
z"/>
<path fill="#354427" opacity="1.000000" stroke="none" 
	d="
M23.234192,29.920834 
	C23.013472,29.553617 22.792753,29.186403 22.423332,28.531471 
	C23.832380,27.999561 25.390129,27.755367 28.113604,27.328432 
	C26.676823,29.265343 25.743803,30.523138 24.501007,31.854805 
	C24.191231,31.928675 24.011236,32.031811 24.014832,31.751297 
	C23.757013,30.954134 23.495604,30.437485 23.234192,29.920834 
z"/>
<path fill="#5F6E41" opacity="1.000000" stroke="none" 
	d="
M49.118034,22.949318 
	C48.331699,22.997343 47.545361,23.045370 46.375977,23.193087 
	C45.992462,22.790033 45.992001,22.287291 46.015011,21.411621 
	C48.785534,19.362770 51.532585,17.686844 54.858925,16.158134 
	C55.639275,16.600538 55.840336,16.895723 55.890579,17.498558 
	C53.532524,19.520576 51.325279,21.234947 49.118034,22.949318 
z"/>
<path fill="#4F6334" opacity="1.000000" stroke="none" 
	d="
M56.041397,17.190910 
	C55.840336,16.895723 55.639275,16.600538 55.222176,16.143681 
	C59.943645,11.736154 61.247353,17.308779 63.944710,19.605858 
	C62.211384,19.404747 60.421291,18.866930 58.037769,18.123558 
	C56.976688,17.675636 56.509045,17.433273 56.041397,17.190910 
z"/>
<path fill="#354C26" opacity="1.000000" stroke="none" 
	d="
M73.688705,19.139523 
	C73.951309,19.395775 73.835899,19.663462 73.273201,19.843731 
	C73.154251,19.609636 73.315849,19.407852 73.688705,19.139523 
z"/>
<path fill="#432D1E" opacity="1.000000" stroke="none" 
	d="
M17.039249,65.896416 
	C21.078211,68.967911 16.903275,71.855164 16.801191,74.831627 
	C16.739073,76.642838 16.319019,78.441765 16.055580,80.605347 
	C10.798929,76.802086 11.733371,71.800758 14.706360,66.318169 
	C15.885408,65.986595 16.462330,65.941505 17.039249,65.896416 
z"/>
<path fill="#747E7C" opacity="1.000000" stroke="none" 
	d="
M17.037823,65.666046 
	C16.462330,65.941505 15.885408,65.986595 14.874306,66.021187 
	C14.754706,63.852161 14.766313,61.585876 15.483123,59.570400 
	C16.022272,58.054459 17.466293,56.860332 18.789989,55.312954 
	C19.278353,55.109901 19.484228,55.116840 20.170479,55.315521 
	C20.752790,56.000843 20.854727,56.494419 20.682501,57.149612 
	C19.286182,59.865803 18.164026,62.420380 17.041870,64.974953 
	C17.041870,64.974953 17.036396,65.435669 17.037823,65.666046 
z"/>
<path fill="#593E2C" opacity="1.000000" stroke="none" 
	d="
M61.965755,46.038918 
	C59.911926,46.356628 57.858101,46.674335 55.404602,46.629883 
	C54.012947,44.840012 53.020962,43.412296 51.878681,41.670235 
	C51.488937,40.235886 51.249489,39.115887 51.010040,37.995888 
	C54.317055,37.171452 57.592247,36.142132 60.946404,35.621250 
	C62.329681,35.406441 63.882580,36.283894 65.454826,37.095764 
	C63.076900,39.825424 59.918236,41.835644 61.965755,46.038918 
z"/>
<path fill="#453426" opacity="1.000000" stroke="none" 
	d="
M62.263031,46.199760 
	C59.918236,41.835644 63.076900,39.825424 65.763931,37.271721 
	C66.172966,37.017841 66.369408,37.019215 66.861755,37.031754 
	C67.045197,40.497826 64.520973,44.438240 69.537376,47.027023 
	C69.925026,47.115318 69.963570,47.022095 70.043961,47.247402 
	C70.342621,47.747288 70.626038,47.865105 71.256165,48.034401 
	C71.733093,49.143902 71.928467,50.045174 72.123840,50.946442 
	C67.239769,52.955219 65.402008,48.611069 62.263031,46.199760 
z"/>
<path fill="#383320" opacity="1.000000" stroke="none" 
	d="
M50.678864,37.848923 
	C51.249489,39.115887 51.488937,40.235886 51.809181,41.980820 
	C51.255112,43.069351 50.620243,43.532951 49.829140,43.757675 
	C49.123425,43.007462 48.573944,42.496128 48.024464,41.984795 
	C47.526932,41.397442 47.029396,40.810085 46.284714,40.060791 
	C46.060902,36.393635 48.070210,36.784737 50.678864,37.848923 
z"/>
<path fill="#87918E" opacity="1.000000" stroke="none" 
	d="
M20.956663,56.987999 
	C20.854727,56.494419 20.752790,56.000843 20.479385,55.322548 
	C21.384214,53.936417 22.460514,52.734993 24.028704,51.722923 
	C27.165972,52.926613 30.115211,54.956078 31.300606,49.915321 
	C32.112217,48.926521 32.591358,48.004704 33.070503,47.082886 
	C33.543781,46.771774 34.017056,46.460667 35.139904,46.108444 
	C36.510448,46.085850 37.231419,46.104370 38.216232,46.373020 
	C40.660717,47.068466 42.841362,47.513783 45.159859,48.259674 
	C45.587582,49.154396 45.877457,49.748547 45.768272,50.356262 
	C44.320602,50.296543 43.271996,50.223259 41.838600,50.103313 
	C39.605438,51.311996 37.757069,52.567345 35.706520,53.955444 
	C35.252499,54.303326 35.075634,54.568470 34.629219,54.956703 
	C32.198105,56.032967 30.111519,57.036163 27.624758,58.025406 
	C25.135277,57.670303 23.045969,57.329151 20.956663,56.987999 
z"/>
<path fill="#757D77" opacity="1.000000" stroke="none" 
	d="
M46.167336,50.342697 
	C45.877457,49.748547 45.587582,49.154396 45.287285,47.976547 
	C45.521156,46.605461 45.765457,45.818073 45.786301,44.782452 
	C44.704498,44.354443 43.846146,44.174664 42.993099,43.996685 
	C42.998402,43.998486 43.005547,44.008636 43.005547,44.008636 
	C44.417278,43.343197 45.829014,42.677757 47.632607,41.998558 
	C48.573944,42.496128 49.123425,43.007462 49.803581,44.135490 
	C48.985527,46.684711 48.036797,48.617229 46.856888,50.502403 
	C46.625713,50.455055 46.167336,50.342697 46.167336,50.342697 
z"/>
<path fill="#747E7C" opacity="1.000000" stroke="none" 
	d="
M46.009758,45.030682 
	C45.765457,45.818073 45.521156,46.605461 45.149437,47.675976 
	C42.841362,47.513783 40.660717,47.068466 38.127831,46.100216 
	C37.525211,45.069653 37.274834,44.562023 37.024456,44.054394 
	C38.733204,44.038574 40.441956,44.022755 42.578125,44.007786 
	C43.005547,44.008636 42.998402,43.998486 43.221748,44.237350 
	C44.299984,44.661037 45.154869,44.845860 46.009758,45.030682 
z"/>
<path fill="#747E7C" opacity="1.000000" stroke="none" 
	d="
M30.968136,49.982300 
	C30.115211,54.956078 27.165972,52.926613 24.320330,51.638321 
	C24.574993,50.680370 25.029924,49.996368 25.770634,49.170834 
	C26.794806,49.025181 27.533197,49.021061 28.890800,49.125221 
	C29.996056,49.483101 30.482096,49.732700 30.968136,49.982300 
z"/>
<path fill="#757D77" opacity="1.000000" stroke="none" 
	d="
M31.300606,49.915321 
	C30.482096,49.732700 29.996056,49.483101 29.260635,49.121029 
	C30.129246,48.353397 31.247240,47.698242 32.717865,47.062984 
	C32.591358,48.004704 32.112217,48.926521 31.300606,49.915321 
z"/>
<path fill="#757D77" opacity="1.000000" stroke="none" 
	d="
M36.710030,44.102055 
	C37.274834,44.562023 37.525211,45.069653 37.863991,45.850086 
	C37.231419,46.104370 36.510448,46.085850 35.430061,46.067474 
	C35.512306,45.428314 35.953957,44.789013 36.710030,44.102055 
z"/>
<path fill="#C9C37A" opacity="1.000000" stroke="none" 
	d="
M23.008148,30.076546 
	C23.495604,30.437485 23.757013,30.954134 23.913403,31.773010 
	C23.466290,31.460909 23.124197,30.846584 23.008148,30.076546 
z"/>
<path fill="#C0C7C6" opacity="1.000000" stroke="none" 
	d="
M99.989471,68.970482 
	C101.659317,73.688919 101.610382,78.490814 100.831444,83.660248 
	C101.310593,85.411667 101.645355,86.838005 101.625443,88.621201 
	C99.717064,87.909225 98.163361,86.840385 96.353210,85.595131 
	C96.216896,86.484421 96.099602,87.249573 95.637924,87.921669 
	C94.600296,85.929787 92.766708,83.400742 93.408394,82.239700 
	C96.415627,76.798409 95.046715,72.587051 90.828499,69.083420 
	C92.415939,67.920959 93.717964,66.967506 95.368881,66.019730 
	C97.141670,67.007095 98.565575,67.988785 99.989471,68.970482 
z"/>
<path fill="#B7BBB7" opacity="1.000000" stroke="none" 
	d="
M95.982315,88.014732 
	C96.099602,87.249573 96.216896,86.484421 96.353210,85.595131 
	C98.163361,86.840385 99.717064,87.909225 101.637337,88.989487 
	C106.651619,96.023888 104.687164,102.950661 101.376556,109.938034 
	C101.052711,110.013512 100.984589,109.522736 100.967682,108.910843 
	C99.972794,107.529831 98.994820,106.760704 98.016838,105.991577 
	C98.012016,105.550537 98.007195,105.109489 98.006790,103.929352 
	C98.163246,102.052483 97.944786,100.654541 98.530090,99.820999 
	C101.391487,95.746010 99.603157,93.129524 96.068535,90.545853 
	C96.031013,89.462379 96.006668,88.738556 95.982315,88.014732 
z"/>
<path fill="#8B6146" opacity="1.000000" stroke="none" 
	d="
M48.559631,105.370026 
	C48.593174,102.359482 48.691677,99.675797 49.103172,96.239243 
	C50.275631,91.323547 51.135109,87.160713 52.252819,83.000465 
	C52.683193,83.005745 52.855335,83.008430 53.031258,83.391045 
	C53.034180,86.860176 53.033318,89.949371 53.014057,93.267990 
	C52.995663,93.497414 52.962582,93.956528 52.582874,94.069931 
	C48.931213,101.121513 51.589775,108.020256 57.953384,109.417068 
	C58.001316,110.467033 58.034714,111.166878 58.068108,111.866714 
	C57.592194,111.928726 57.116276,111.990730 56.285343,112.119904 
	C55.498848,112.144173 55.067368,112.101273 54.115475,111.787354 
	C52.067139,109.998360 50.539219,108.480377 49.011299,106.962395 
	C48.882397,106.540550 48.753494,106.118713 48.559631,105.370026 
z"/>
<path fill="#5F422B" opacity="1.000000" stroke="none" 
	d="
M48.910789,107.203171 
	C50.539219,108.480377 52.067139,109.998360 53.789665,111.786629 
	C52.561325,112.368011 51.138382,112.679108 49.267586,112.556961 
	C48.747211,110.723305 48.674690,109.322884 48.602165,107.922470 
	C48.671535,107.762962 48.740910,107.603447 48.910789,107.203171 
z"/>
<path fill="#BCBBB2" opacity="1.000000" stroke="none" 
	d="
M48.269066,108.080391 
	C48.674690,109.322884 48.747211,110.723305 48.882313,112.544174 
	C48.574982,113.108681 48.205074,113.252724 47.536201,113.405548 
	C47.470146,111.688988 47.703060,109.963654 48.269066,108.080391 
z"/>
<path fill="#C4CECD" opacity="1.000000" stroke="none" 
	d="
M96.081703,90.905502 
	C99.603157,93.129524 101.391487,95.746010 98.530090,99.820999 
	C97.944786,100.654541 98.163246,102.052483 98.001205,103.598579 
	C96.602676,104.413300 95.214134,104.819695 93.755440,105.246628 
	C89.946236,101.585724 89.946236,101.585724 86.795601,104.641815 
	C85.745193,103.467926 84.689331,102.287949 83.301598,101.020264 
	C82.638710,97.326431 82.679970,93.631989 81.852379,90.143661 
	C81.250114,87.605118 79.500427,85.338791 77.726715,82.791763 
	C76.117500,80.719246 75.043869,78.806053 74.073349,76.565353 
	C76.076523,76.663185 78.044724,76.903801 79.855339,77.571640 
	C81.334274,78.117142 82.625076,79.172722 84.152390,80.345459 
	C85.142349,82.953293 85.452911,85.680466 86.940613,87.372871 
	C89.119812,89.851913 92.142136,91.589806 95.152328,93.911263 
	C95.304520,93.419052 95.693108,92.162277 96.081703,90.905502 
z"/>
<path fill="#C4CECD" opacity="1.000000" stroke="none" 
	d="
M97.803467,106.212273 
	C98.994820,106.760704 99.972794,107.529831 100.947174,108.663956 
	C99.825760,108.163628 98.707924,107.298294 97.803467,106.212273 
z"/>
<path fill="#BB805C" opacity="1.000000" stroke="none" 
	d="
M57.938847,109.066948 
	C51.589775,108.020256 48.931213,101.121513 52.599556,94.522171 
	C53.660595,97.909225 54.325237,100.957443 55.043259,104.338860 
	C56.398090,105.136131 57.699547,105.600204 59.400787,106.058060 
	C60.866798,106.048569 61.933025,106.045296 63.281033,106.282074 
	C66.703621,105.676704 69.844429,104.831291 72.992615,103.992935 
	C73.000000,104.000000 72.985962,103.985359 73.319489,103.783707 
	C74.126862,100.020325 74.600708,96.458580 75.385239,92.905533 
	C76.106834,92.962593 76.517746,93.010956 77.006264,93.446701 
	C78.656075,99.362213 78.258293,104.232750 72.750473,107.575699 
	C72.212143,107.902428 72.152916,109.018517 71.871307,109.768211 
	C71.871307,109.768211 71.407021,109.866768 70.866875,109.871857 
	C69.914474,109.865219 69.502220,109.853493 69.010651,109.583649 
	C68.267273,109.518913 67.603218,109.712303 66.544632,109.917183 
	C65.097694,109.944260 64.045296,109.959854 62.715813,109.727615 
	C60.938770,109.342171 59.438808,109.204559 57.938847,109.066948 
z"/>
<path fill="#8E664E" opacity="1.000000" stroke="none" 
	d="
M72.249077,109.828964 
	C72.152916,109.018517 72.212143,107.902428 72.750473,107.575699 
	C78.258293,104.232750 78.656075,99.362213 77.319275,93.425995 
	C77.970688,93.003365 78.386696,92.988823 78.802704,92.974289 
	C79.522438,96.398972 80.242172,99.823647 80.930481,103.651001 
	C78.141647,105.999023 75.384247,107.944366 72.249077,109.828964 
z"/>
<path fill="#8B6146" opacity="1.000000" stroke="none" 
	d="
M62.992897,109.975449 
	C64.045296,109.959854 65.097694,109.944260 66.903809,109.942307 
	C68.135002,109.917892 68.612488,109.879837 69.089966,109.841766 
	C69.502220,109.853493 69.914474,109.865219 70.633034,109.912308 
	C70.959442,110.119400 70.979553,110.291122 70.995224,110.721985 
	C68.580223,111.302444 66.169662,111.623764 63.360008,111.592102 
	C62.971569,110.817894 62.982231,110.396667 62.992897,109.975449 
z"/>
<path fill="#825C44" opacity="1.000000" stroke="none" 
	d="
M78.843369,92.565796 
	C78.386696,92.988823 77.970688,93.003365 77.241669,93.038612 
	C76.517746,93.010956 76.106834,92.962593 75.298309,92.618652 
	C74.297974,91.849106 73.695274,91.375153 73.082275,90.502716 
	C71.824203,86.869926 73.478142,81.906868 67.412888,81.233353 
	C63.400471,81.545494 59.800190,81.921394 55.857224,82.245056 
	C54.685520,82.465599 53.856499,82.738358 53.027473,83.011116 
	C52.855335,83.008430 52.683193,83.005745 52.254276,82.618607 
	C51.992443,81.470123 51.987385,80.706085 51.982330,79.942047 
	C52.119606,79.376297 52.256882,78.810547 52.982422,78.150017 
	C54.708454,78.337402 55.846226,78.619568 57.318542,79.064499 
	C60.142445,78.833336 62.631802,78.439392 65.535812,78.035446 
	C68.320152,77.660248 70.689827,77.295067 73.288132,76.943726 
	C73.516754,76.957565 73.970245,76.892860 73.970245,76.892860 
	C75.043869,78.806053 76.117500,80.719246 77.431839,82.894081 
	C78.076378,86.156258 78.480202,89.156776 78.843369,92.565796 
z"/>
<path fill="#A47252" opacity="1.000000" stroke="none" 
	d="
M62.715813,109.727615 
	C62.982231,110.396667 62.971569,110.817894 62.947121,111.552315 
	C61.580765,111.889854 60.228191,111.914185 58.471867,111.902618 
	C58.034714,111.166878 58.001316,110.467033 57.953384,109.417068 
	C59.438808,109.204559 60.938770,109.342171 62.715813,109.727615 
z"/>
<path fill="#79817D" opacity="1.000000" stroke="none" 
	d="
M99.146576,53.182793 
	C94.850380,52.615372 90.827980,51.813335 86.224236,50.868523 
	C84.746140,50.194584 83.849403,49.663422 82.743530,49.029732 
	C82.243408,48.775753 82.046761,48.544193 82.146255,47.929306 
	C82.897789,46.085991 83.447540,44.545887 83.997284,43.005779 
	C88.048798,44.417404 92.286842,45.465630 96.066925,47.406010 
	C97.757576,48.273853 102.877998,48.441624 99.146576,53.182793 
z"/>
<path fill="#818B86" opacity="1.000000" stroke="none" 
	d="
M83.605850,42.977093 
	C83.447540,44.545887 82.897789,46.085991 81.771767,47.878593 
	C80.442825,48.124641 79.690170,48.118198 78.538132,47.972569 
	C77.316322,47.803032 76.493889,47.772686 75.383377,47.760639 
	C74.735306,47.914455 74.375320,48.049969 73.805008,48.229691 
	C73.315689,48.444748 73.203194,48.691532 73.185776,49.329468 
	C73.058998,50.071644 73.003639,50.498608 72.948288,50.925568 
	C72.948288,50.925568 72.535873,50.933895 72.329857,50.940170 
	C71.928467,50.045174 71.733093,49.143902 71.122124,47.861122 
	C70.498444,47.262875 70.250786,47.110371 69.963570,47.022095 
	C69.963570,47.022095 69.925026,47.115318 69.873535,47.117130 
	C70.977081,45.455669 72.132118,43.792397 73.711929,42.391983 
	C75.092247,42.440609 76.047798,42.226376 77.003349,42.012138 
	C79.073708,42.324230 81.144058,42.636318 83.605850,42.977093 
z"/>
<path fill="#79817D" opacity="1.000000" stroke="none" 
	d="
M76.627045,41.991886 
	C76.047798,42.226376 75.092247,42.440609 74.064224,42.343422 
	C74.744743,42.011875 75.497742,41.991753 76.627045,41.991886 
z"/>
<path fill="#1A1710" opacity="1.000000" stroke="none" 
	d="
M102.861748,56.782959 
	C102.500610,56.818130 101.945381,56.626106 101.194176,56.205502 
	C101.554688,56.169868 102.111168,56.362816 102.861748,56.782959 
z"/>
<path fill="#A07657" opacity="1.000000" stroke="none" 
	d="
M105.701294,70.925804 
	C105.312370,71.235443 105.005951,71.142784 104.346687,70.670944 
	C101.040314,67.425011 98.094048,64.534264 95.068695,61.406662 
	C94.335915,61.051861 93.682220,60.933926 92.581497,60.817909 
	C89.498749,60.661327 86.863022,60.502831 84.095459,60.150696 
	C83.238914,60.137142 82.514221,60.317226 81.386353,60.572563 
	C79.102821,60.963936 77.222458,61.280056 74.994934,61.409920 
	C74.396667,61.153214 74.145554,61.082752 73.845215,60.687462 
	C72.851768,58.932087 71.907562,57.501534 70.963356,56.070980 
	C76.456970,59.667328 82.294464,57.344818 87.854820,56.662132 
	C98.072487,55.407639 99.673523,55.982136 103.800117,65.478149 
	C104.522438,67.140335 105.120888,68.856346 105.701294,70.925804 
z"/>
<path fill="#F0AD7A" opacity="1.000000" stroke="none" 
	d="
M63.008724,52.981056 
	C63.578163,53.483624 64.147606,53.986187 64.598663,54.991020 
	C64.662010,57.332897 64.843735,59.172504 64.966789,61.363823 
	C61.787598,66.077003 59.441334,66.683136 55.790009,63.684074 
	C54.367607,56.996243 56.786015,53.591290 63.008724,52.981056 
z"/>
<path fill="#D1946B" opacity="1.000000" stroke="none" 
	d="
M62.976898,52.616302 
	C56.786015,53.591290 54.367607,56.996243 55.426247,63.678169 
	C54.463417,64.027466 53.731678,64.029915 52.999943,64.032364 
	C51.294468,64.025192 49.588993,64.018021 47.427994,63.620697 
	C47.021854,62.187901 47.071236,61.145267 47.130329,60.078861 
	C47.140038,60.055088 47.147491,60.109283 47.442719,60.029297 
	C48.166626,59.311420 48.595310,58.673527 49.186592,57.743198 
	C50.944695,55.701782 52.540195,53.952805 54.135696,52.203827 
	C57.084290,49.979179 60.028912,48.487747 62.976898,52.616302 
z"/>
<path fill="#593E2C" opacity="1.000000" stroke="none" 
	d="
M53.986320,51.965080 
	C52.540195,53.952805 50.944695,55.701782 48.886337,57.752914 
	C47.920918,58.345535 47.418354,58.636013 46.618591,58.869217 
	C45.206154,57.575405 44.090919,56.338871 42.570412,55.073826 
	C40.666618,54.640144 39.168102,54.234970 37.917648,53.591148 
	C39.518276,52.284996 40.870831,51.217491 42.223389,50.149979 
	C43.271996,50.223259 44.320602,50.296543 45.768272,50.356262 
	C46.167336,50.342697 46.625713,50.455055 46.863304,50.807358 
	C49.171238,54.903389 51.051811,51.850113 52.993759,50.995132 
	C53.274818,51.238865 53.555882,51.482601 53.986320,51.965080 
z"/>
<path fill="#4B3729" opacity="1.000000" stroke="none" 
	d="
M53.126633,50.705765 
	C51.051811,51.850113 49.171238,54.903389 47.094479,50.854706 
	C48.036797,48.617229 48.985527,46.684711 49.959816,44.374374 
	C50.620243,43.532951 51.255112,43.069351 51.959480,42.295166 
	C53.020962,43.412296 54.012947,44.840012 55.014248,46.648781 
	C54.435547,48.158688 53.847530,49.287540 53.126633,50.705765 
z"/>
<path fill="#D1946B" opacity="1.000000" stroke="none" 
	d="
M65.025467,61.012115 
	C64.843735,59.172504 64.662010,57.332897 64.710213,55.257942 
	C66.698051,55.321140 68.455956,55.619678 70.588608,55.994598 
	C71.907562,57.501534 72.851768,58.932087 73.485123,60.685204 
	C71.781555,61.345806 70.388824,61.683842 68.680481,61.877399 
	C67.251732,61.492649 66.138603,61.252384 65.025467,61.012115 
z"/>
<path fill="#2F2D1E" opacity="1.000000" stroke="none" 
	d="
M74.015327,48.185486 
	C74.375320,48.049969 74.735306,47.914455 75.613174,48.007133 
	C77.066544,48.194138 78.002022,48.152946 78.937508,48.111755 
	C79.690170,48.118198 80.442825,48.124641 81.569977,48.181805 
	C82.046761,48.544193 82.243408,48.775753 82.751984,49.319626 
	C82.959259,50.097755 82.948952,50.483471 82.938644,50.869183 
	C82.938644,50.869183 82.950516,50.964649 82.596619,50.975403 
	C80.125565,51.306778 78.008400,51.627399 75.670273,51.939827 
	C75.449295,51.931641 75.007782,51.957092 75.007782,51.957092 
	C74.454369,51.761219 73.900963,51.565346 73.147919,51.147518 
	C73.003639,50.498608 73.058998,50.071644 73.340431,49.219757 
	C73.756721,48.621632 73.906326,48.418518 74.015327,48.185486 
z"/>
<path fill="#765D48" opacity="1.000000" stroke="none" 
	d="
M75.891243,51.948021 
	C78.008400,51.627399 80.125565,51.306778 82.627472,51.012306 
	C82.983780,54.999424 79.989098,53.761631 77.376160,53.689194 
	C76.576630,52.905884 76.233940,52.426952 75.891243,51.948021 
z"/>
<path fill="#493D30" opacity="1.000000" stroke="none" 
	d="
M83.196045,51.011925 
	C82.948952,50.483471 82.959259,50.097755 82.961113,49.422150 
	C83.849403,49.663422 84.746140,50.194584 85.792641,50.899658 
	C85.112747,51.100601 84.283089,51.127636 83.196045,51.011925 
z"/>
<path fill="#64503F" opacity="1.000000" stroke="none" 
	d="
M75.670273,51.939831 
	C76.233940,52.426952 76.576630,52.905884 76.962250,53.684761 
	C76.282036,53.486824 75.558899,52.988941 74.921776,52.224075 
	C75.007782,51.957092 75.449295,51.931641 75.670273,51.939831 
z"/>
<path fill="#D2CEC7" opacity="1.000000" stroke="none" 
	d="
M95.147774,61.643524 
	C98.094048,64.534264 101.040314,67.425011 104.107132,70.641914 
	C103.013176,70.412224 101.798676,69.856369 100.286827,69.135498 
	C98.565575,67.988785 97.141670,67.007095 95.197906,65.676285 
	C91.514931,62.138172 82.870682,61.956432 78.614632,65.056633 
	C75.025124,66.045944 71.816338,66.976067 68.607544,67.906189 
	C68.585312,67.479797 68.563065,67.053398 68.714417,66.132500 
	C68.969887,65.485779 69.051765,65.333557 69.462112,65.088608 
	C71.641098,63.862637 73.491592,62.729408 75.342087,61.596176 
	C77.222458,61.280056 79.102821,60.963936 81.794342,60.685753 
	C83.146095,60.597240 83.686691,60.470787 84.227295,60.344330 
	C86.863022,60.502831 89.498749,60.661327 92.761429,61.073528 
	C93.974846,61.432659 94.561310,61.538094 95.147774,61.643524 
z"/>
<path fill="#927560" opacity="1.000000" stroke="none" 
	d="
M73.059509,76.929878 
	C70.689827,77.295067 68.320152,77.660248 65.479813,77.647964 
	C62.030571,73.581696 59.483131,74.099503 56.983997,78.901733 
	C55.846226,78.619568 54.708454,78.337402 53.221931,77.978317 
	C53.963287,76.943420 55.053402,75.985443 56.392239,74.837593 
	C57.084587,73.973885 57.528214,73.300049 57.985062,72.313850 
	C60.325504,72.354813 62.652725,72.708138 65.646317,73.206573 
	C67.865654,73.911964 69.418610,74.472252 71.104019,75.291656 
	C71.844147,76.010468 72.451828,76.470169 73.059509,76.929878 
z"/>
<path fill="#785C46" opacity="1.000000" stroke="none" 
	d="
M51.606667,80.002457 
	C51.987385,80.706085 51.992443,81.470123 51.996044,82.616020 
	C51.135109,87.160713 50.275631,91.323547 49.134281,95.792908 
	C48.576206,92.072563 48.011036,88.033234 48.183990,84.025757 
	C48.242783,82.663498 50.161938,81.381531 51.606667,80.002457 
z"/>
<path fill="#765037" opacity="1.000000" stroke="none" 
	d="
M42.975689,55.102333 
	C44.090919,56.338871 45.206154,57.575405 46.672806,59.166008 
	C47.065311,59.716476 47.106403,59.912880 47.147491,60.109283 
	C47.147491,60.109283 47.140038,60.055088 46.750046,60.194611 
	C43.886871,61.150120 41.413692,61.966106 38.940510,62.782093 
	C38.191422,62.828342 37.442337,62.874592 36.317520,62.882629 
	C32.438725,62.368790 28.935658,61.893162 25.316830,60.883438 
	C26.142359,59.579350 27.083647,58.809357 28.024933,58.039360 
	C30.111519,57.036163 32.198105,56.032967 34.642067,55.365047 
	C35.885166,56.787319 37.299332,58.928696 37.571823,58.792130 
	C39.504158,57.823669 41.202663,56.388657 42.975689,55.102333 
z"/>
<path fill="#C2875D" opacity="1.000000" stroke="none" 
	d="
M69.133636,65.181343 
	C69.051765,65.333557 68.969887,65.485779 68.693192,65.812607 
	C68.174248,65.983574 67.850235,65.975746 67.053619,66.074509 
	C66.380791,66.445778 66.180679,66.706291 65.980560,66.966805 
	C65.980560,66.966805 65.987602,66.996590 65.674805,67.001022 
	C64.855896,67.319107 64.349800,67.632767 63.843697,67.946411 
	C63.413361,68.183632 62.983025,68.420853 61.976326,68.638939 
	C59.606110,68.385468 57.812260,68.151115 56.018410,67.916771 
	C55.543232,67.631516 55.068050,67.346260 54.310398,67.024765 
	C53.707916,66.212013 53.387905,65.435509 53.033920,64.345680 
	C53.731678,64.029915 54.463417,64.027466 55.558914,64.030930 
	C59.441334,66.683136 61.787598,66.077003 64.966789,61.363823 
	C66.138603,61.252384 67.251732,61.492649 68.689285,62.271111 
	C69.053673,63.599983 69.093651,64.390663 69.133636,65.181343 
z"/>
<path fill="#8E664C" opacity="1.000000" stroke="none" 
	d="
M39.348145,62.875690 
	C41.413692,61.966106 43.886871,61.150120 46.740337,60.218384 
	C47.071236,61.145267 47.021854,62.187901 47.001816,63.622986 
	C44.606033,63.666718 42.180904,63.318005 39.348145,62.875690 
z"/>
<path fill="#93928C" opacity="1.000000" stroke="none" 
	d="
M27.624758,58.025406 
	C27.083647,58.809357 26.142359,59.579350 25.010136,60.596214 
	C22.452852,62.187084 20.086506,63.531086 17.381014,64.925018 
	C18.164026,62.420380 19.286182,59.865803 20.682501,57.149612 
	C23.045969,57.329151 25.135277,57.670303 27.624758,58.025406 
z"/>
<path fill="#D4DCDB" opacity="1.000000" stroke="none" 
	d="
M73.288132,76.943726 
	C72.451828,76.470169 71.844147,76.010468 71.110535,74.897667 
	C70.186203,72.294868 69.387802,70.345169 68.589401,68.395470 
	C68.589401,68.395470 68.503075,68.146027 68.555313,68.026108 
	C71.816338,66.976067 75.025124,66.045944 79.051506,65.057251 
	C81.845428,65.057808 84.063820,64.590515 85.717674,65.350983 
	C86.931358,65.909050 88.382126,69.047173 88.055916,69.375648 
	C85.068405,72.383904 83.572662,75.775269 83.999290,80.002151 
	C82.625076,79.172722 81.334274,78.117142 79.855339,77.571640 
	C78.044724,76.903801 76.076523,76.663185 74.073349,76.565353 
	C73.970245,76.892860 73.516754,76.957565 73.288132,76.943726 
z"/>
<path fill="#D2CEC7" opacity="1.000000" stroke="none" 
	d="
M68.267662,68.552719 
	C69.387802,70.345169 70.186203,72.294868 70.978081,74.638550 
	C69.418610,74.472252 67.865654,73.911964 65.967133,73.205032 
	C66.396355,71.608910 67.171143,70.159447 68.267662,68.552719 
z"/>
<path fill="#927560" opacity="1.000000" stroke="none" 
	d="
M56.017937,68.246918 
	C57.812260,68.151115 59.606110,68.385468 61.765278,68.765091 
	C60.386757,69.259483 58.642921,69.608589 56.504852,69.922882 
	C56.079567,69.451057 56.048515,69.014069 56.017937,68.246918 
z"/>
<path fill="#927560" opacity="1.000000" stroke="none" 
	d="
M64.155296,67.936142 
	C64.349800,67.632767 64.855896,67.319107 65.665039,66.985916 
	C65.467690,67.286209 64.967293,67.606041 64.155296,67.936142 
z"/>
<path fill="#927560" opacity="1.000000" stroke="none" 
	d="
M66.196365,66.847427 
	C66.180679,66.706291 66.380791,66.445778 66.807404,66.076637 
	C66.885040,66.269135 66.677803,66.522484 66.196365,66.847427 
z"/>
<path fill="#C5C27A" opacity="1.000000" stroke="none" 
	d="
M55.890579,17.498558 
	C56.509045,17.433273 56.976688,17.675636 57.689163,18.038523 
	C58.933254,21.322598 59.932510,24.486149 60.942760,28.015900 
	C57.517368,27.000978 54.080982,25.619856 50.344673,24.080952 
	C49.975597,23.601492 49.808113,23.343708 49.330162,23.049568 
	C51.325279,21.234947 53.532524,19.520576 55.890579,17.498558 
z"/>
<path fill="#79817D" opacity="1.000000" stroke="none" 
	d="
M70.043961,47.247402 
	C70.250786,47.110371 70.498444,47.262875 70.840576,47.652885 
	C70.626038,47.865105 70.342621,47.747288 70.043961,47.247402 
z"/>
<path fill="#795B47" opacity="1.000000" stroke="none" 
	d="
M42.570412,55.073826 
	C41.202663,56.388657 39.504158,57.823669 37.571823,58.792130 
	C37.299332,58.928696 35.885166,56.787319 34.986599,55.291977 
	C35.075634,54.568470 35.252499,54.303326 36.001366,53.988960 
	C36.888783,53.869747 37.279182,53.849770 37.669582,53.829796 
	C39.168102,54.234970 40.666618,54.640144 42.570412,55.073826 
z"/>
<path fill="#757D77" opacity="1.000000" stroke="none" 
	d="
M37.917648,53.591148 
	C37.279182,53.849770 36.888783,53.869747 36.203537,53.856209 
	C37.757069,52.567345 39.605438,51.311996 41.838600,50.103317 
	C40.870831,51.217491 39.518276,52.284996 37.917648,53.591148 
z"/>
<path fill="#656D63" opacity="1.000000" stroke="none" 
	d="
M45.786301,44.782452 
	C45.154869,44.845860 44.299984,44.661037 43.216446,44.235550 
	C43.846146,44.174664 44.704498,44.354443 45.786301,44.782452 
z"/>
<path fill="#CCD4D3" opacity="1.000000" stroke="none" 
	d="
M84.152390,80.345459 
	C83.572662,75.775269 85.068405,72.383904 88.055916,69.375648 
	C88.382126,69.047173 86.931358,65.909050 85.717674,65.350983 
	C84.063820,64.590515 81.845428,65.057808 79.432220,64.998062 
	C82.870682,61.956432 91.514931,62.138172 94.849014,65.670609 
	C93.717964,66.967506 92.415939,67.920959 90.828499,69.083420 
	C95.046715,72.587051 96.415627,76.798409 93.408394,82.239700 
	C92.766708,83.400742 94.600296,85.929787 95.637932,87.921669 
	C96.006668,88.738556 96.031013,89.462379 96.068535,90.545853 
	C95.693108,92.162277 95.304520,93.419052 95.152328,93.911263 
	C92.142136,91.589806 89.119812,89.851913 86.940613,87.372871 
	C85.452911,85.680466 85.142349,82.953293 84.152390,80.345459 
z"/>
<path fill="#AE724E" opacity="1.000000" stroke="none" 
	d="
M67.825012,81.297096 
	C73.478142,81.906868 71.824203,86.869926 72.766052,90.416138 
	C71.629234,90.509293 70.798347,90.290543 69.626450,90.077118 
	C68.836594,90.150703 68.387756,90.218979 67.533134,90.220917 
	C64.424362,90.462349 61.721378,90.770119 58.698326,91.074356 
	C57.560043,91.678513 56.741825,92.286194 55.685101,92.808640 
	C54.641884,92.828461 53.837166,92.933517 53.032452,93.038574 
	C53.033318,89.949371 53.034180,86.860176 53.031258,83.391045 
	C53.856499,82.738358 54.685520,82.465599 55.816399,82.624710 
	C57.827183,88.876740 62.396343,85.401726 65.605301,85.710930 
	C68.436745,85.983772 69.159126,83.836884 67.825012,81.297096 
z"/>
<path fill="#D59067" opacity="1.000000" stroke="none" 
	d="
M53.014057,93.267990 
	C53.837166,92.933517 54.641884,92.828461 55.712238,93.238411 
	C55.998188,95.176743 56.018494,96.600060 56.034817,98.418472 
	C56.037285,99.865669 56.043736,100.917770 56.038589,102.306931 
	C56.024712,103.093666 56.022427,103.543343 55.762573,103.996208 
	C55.333302,104.001488 55.161594,104.003578 54.989883,104.005669 
	C54.325237,100.957443 53.660595,97.909225 52.979263,94.408768 
	C52.962582,93.956528 52.995663,93.497414 53.014057,93.267990 
z"/>
<path fill="#E5A073" opacity="1.000000" stroke="none" 
	d="
M56.020138,103.993011 
	C56.022427,103.543343 56.024712,103.093666 56.428829,102.379959 
	C61.104824,101.725670 65.378983,101.335411 69.653145,100.945152 
	C69.115456,97.721672 68.575996,94.498474 68.042770,91.274261 
	C67.988892,90.948441 67.972633,90.616402 67.938919,90.287247 
	C68.387756,90.218979 68.836594,90.150703 69.693558,90.440262 
	C71.063103,95.193848 72.024529,99.589607 72.985962,103.985359 
	C72.985962,103.985359 73.000000,104.000000 72.561066,103.993263 
	C69.081169,104.671684 66.040207,105.356850 62.999249,106.042023 
	C61.933025,106.045296 60.866798,106.048569 59.221207,105.808853 
	C57.767941,105.041588 56.894039,104.517296 56.020138,103.993011 
z"/>
<path fill="#D29268" opacity="1.000000" stroke="none" 
	d="
M73.319489,103.783707 
	C72.024529,99.589607 71.063103,95.193848 70.034569,90.434944 
	C70.798347,90.290543 71.629234,90.509293 72.776344,90.814621 
	C73.695274,91.375153 74.297974,91.849106 74.987610,92.609955 
	C74.600708,96.458580 74.126862,100.020325 73.319489,103.783707 
z"/>
<path fill="#D29268" opacity="1.000000" stroke="none" 
	d="
M63.281033,106.282074 
	C66.040207,105.356850 69.081169,104.671684 72.553680,103.986206 
	C69.844429,104.831291 66.703621,105.676704 63.281033,106.282074 
z"/>
<path fill="#D29268" opacity="1.000000" stroke="none" 
	d="
M55.762573,103.996208 
	C56.894039,104.517296 57.767941,105.041588 58.821419,105.815079 
	C57.699547,105.600204 56.398090,105.136131 55.043259,104.338860 
	C55.161594,104.003578 55.333302,104.001488 55.762573,103.996208 
z"/>
<path fill="#A47252" opacity="1.000000" stroke="none" 
	d="
M69.010651,109.583649 
	C68.612488,109.879837 68.135002,109.917892 67.298340,109.930817 
	C67.603218,109.712303 68.267273,109.518913 69.010651,109.583649 
z"/>
<path fill="#C98C66" opacity="1.000000" stroke="none" 
	d="
M67.412888,81.233353 
	C69.159126,83.836884 68.436745,85.983772 65.605301,85.710930 
	C62.396343,85.401726 57.827183,88.876740 56.159081,82.676941 
	C59.800190,81.921394 63.400471,81.545494 67.412888,81.233353 
z"/>
<path fill="#B57E58" opacity="1.000000" stroke="none" 
	d="
M57.318542,79.064507 
	C59.483131,74.099503 62.030571,73.581696 65.065155,77.657974 
	C62.631802,78.439392 60.142445,78.833336 57.318542,79.064507 
z"/>
<path fill="#101303" opacity="1.000000" stroke="none" 
	d="
M78.538132,47.972565 
	C78.002022,48.152946 77.066544,48.194138 75.901260,47.988838 
	C76.493889,47.772686 77.316322,47.803032 78.538132,47.972565 
z"/>
<path fill="#493D30" opacity="1.000000" stroke="none" 
	d="
M73.805008,48.229691 
	C73.906326,48.418518 73.756721,48.621632 73.411850,48.904541 
	C73.203194,48.691532 73.315689,48.444748 73.805008,48.229691 
z"/>
<path fill="#C49A7D" opacity="1.000000" stroke="none" 
	d="
M69.462112,65.088608 
	C69.093651,64.390663 69.053673,63.599983 69.004898,62.415592 
	C70.388824,61.683842 71.781555,61.345806 73.534363,61.010029 
	C74.145554,61.082752 74.396667,61.153214 74.994934,61.409927 
	C73.491592,62.729408 71.641098,63.862637 69.462112,65.088608 
z"/>
<path fill="#C49A7D" opacity="1.000000" stroke="none" 
	d="
M95.068695,61.406662 
	C94.561310,61.538094 93.974846,61.432659 93.208450,61.071609 
	C93.682220,60.933926 94.335915,61.051861 95.068695,61.406662 
z"/>
<path fill="#C49A7D" opacity="1.000000" stroke="none" 
	d="
M84.095459,60.150696 
	C83.686691,60.470787 83.146095,60.597240 82.197510,60.610504 
	C82.514221,60.317226 83.238914,60.137142 84.095459,60.150696 
z"/>
<path fill="#8E664C" opacity="1.000000" stroke="none" 
	d="
M47.442719,60.029297 
	C47.106403,59.912880 47.065311,59.716476 46.970009,59.223282 
	C47.418354,58.636013 47.920918,58.345535 48.723732,58.045349 
	C48.595310,58.673527 48.166626,59.311420 47.442719,60.029297 
z"/>
<path fill="#F4AA7B" opacity="1.000000" stroke="none" 
	d="
M67.533134,90.220917 
	C67.972633,90.616402 67.988892,90.948441 68.042770,91.274261 
	C68.575996,94.498474 69.115456,97.721672 69.653145,100.945152 
	C65.378983,101.335411 61.104824,101.725670 56.440422,102.042900 
	C56.043736,100.917770 56.037285,99.865669 56.376480,98.314804 
	C57.487545,95.569984 58.252972,93.323936 59.018394,91.077881 
	C61.721378,90.770119 64.424362,90.462349 67.533134,90.220917 
z"/>
<path fill="#E5A073" opacity="1.000000" stroke="none" 
	d="
M58.698326,91.074356 
	C58.252972,93.323936 57.487545,95.569984 56.380463,97.919708 
	C56.018494,96.600060 55.998188,95.176743 55.950741,93.323647 
	C56.741825,92.286194 57.560043,91.678513 58.698326,91.074356 
z"/>
</svg>